<svg xmlns="http://www.w3.org/2000/svg" viewBox="0 0 2850 3000" width="2850" height="3000"><g transform="translate(397.5 1090.5) rotate(0.0 907.5 742.5) scale(1.5188284518828452 1.519959058341863)"><svg width="1195" height="977" viewBox="0 0 1195 977"><linearGradient id="a"><stop offset=".124" stop-color="#eab7d7"/><stop offset=".844" stop-color="#ce89bc"/></linearGradient><linearGradient xmlns:xlink="http://www.w3.org/1999/xlink" id="d" gradientTransform="matrix(1 0 0 -1 0 978)" gradientUnits="userSpaceOnUse" x1="969.781" x2="1123.547" xlink:href="#a" y1="479.342" y2="361.693"/><linearGradient id="b"><stop offset="0" stop-color="#e0aacc"/><stop offset="1" stop-color="#ce89bc"/></linearGradient><linearGradient xmlns:xlink="http://www.w3.org/1999/xlink" id="e" gradientTransform="matrix(1 0 0 -1 0 978)" gradientUnits="userSpaceOnUse" x1="1033.386" x2="1033.799" xlink:href="#b" y1="565.502" y2="787.864"/><linearGradient xmlns:xlink="http://www.w3.org/1999/xlink" id="f" gradientTransform="matrix(1 0 0 -1 0 978)" gradientUnits="userSpaceOnUse" x1="77.169" x2="267.624" xlink:href="#a" y1="204.323" y2="58.603"/><linearGradient xmlns:xlink="http://www.w3.org/1999/xlink" id="g" gradientTransform="matrix(1 0 0 -1 0 978)" gradientUnits="userSpaceOnUse" x1="157.861" x2="158.362" xlink:href="#b" y1="306.81" y2="576.368"/><linearGradient id="c"><stop offset=".124" stop-color="#eab2d2"/><stop offset=".844" stop-color="#dc9dc6"/></linearGradient><linearGradient xmlns:xlink="http://www.w3.org/1999/xlink" id="h" gradientTransform="matrix(1 0 0 -1 0 978)" gradientUnits="userSpaceOnUse" x1="537.14" x2="686.305" xlink:href="#c" y1="905.168" y2="682.338"/><linearGradient xmlns:xlink="http://www.w3.org/1999/xlink" id="i" gradientTransform="matrix(1 0 0 -1 0 978)" gradientUnits="userSpaceOnUse" x1="-103.074" x2="178.647" xlink:href="#c" y1="836.256" y2="674.212"/><path d="m1195 143-70.872 2-777.935 184.788L71.668 196.71 0 183l18.936 30.085 263.15 148.426v561.447L69.148 772.915 63 758l-11.723-44.915-1.192-475.745-12.425-7.234-5.277 537.873 249.702 191.149L294 977l13.617-27.745 6.847-567.82L325 406l31.02-31.066 785.12-203.71-2.544 438.287L954 505.596 955 494l-10-53.68V227.722l-15.328 6.639-4.693 264.51 222.279 143.872 5.742 22.033 10.294-50.58 3.727-440.09z" fill="#c078aa"/><path d="m955 494-20 7.286 198 120.98 15-16.489z" fill="url(#d)"/><path d="m1174 152.777-21 9v503l21-9zM955 42h-20v459.286L955 494z" fill="#c078aa"/><path d="M1133 152.777v469.489l-198-120.98V37h-21v475l239 152.777v-512z" fill="url(#e)"/><path d="m63 758-20 7.286L274 934.49 289 918z" fill="url(#f)"/><path d="m315 337-21 9v631l21-9zM63 221H43v544.286L63 758z" fill="#c078aa"/><path d="M274 337v597.49L43 765.286V216H22v560l272 201V337z" fill="url(#g)"/><path d="M1195 143 324 372 0 183 917 0z" fill="url(#h)"/><path d="M325 406 0 212v-29l325 188z" fill="url(#i)"/><path d="m325 406 870-236v-27L325 371z" fill="#c078aa"/></svg></g><g transform="translate(804.0 1192.5) rotate(0.0 586.5 170.25) scale(1.512246879137568 1.512923163053572)"><svg width="775.667" height="225.061" viewBox="0 0 775.667 225.061"><path d="M136.296 223.731 2.021 150.947c-3.13-1.697-2.487-6.367.986-7.154L636.179.348a14.092 14.092 0 0 1 9.275 1.069l128.072 62.232c3.202 1.556 2.701 6.266-.757 7.113L144.155 224.745c-2.655.65-5.457.289-7.86-1.014z" fill="#1e1e1e"/></svg></g><g transform="translate(1185.0 1204.5) rotate(0.0 308.25 96.75) scale(1.6001474263971118 1.5991735537190082)"><svg width="385.277" height="121" viewBox="0 0 385.277 121"><linearGradient id="j" gradientUnits="userSpaceOnUse" x1="-8.598" x2="114.725" y1="66.231" y2="138.871"><stop offset="0" stop-color="#7670b0"/><stop offset=".224" stop-color="#595580"/><stop offset=".457" stop-color="#3f3d56"/><stop offset=".668" stop-color="#2d2c37"/><stop offset=".847" stop-color="#222124"/><stop offset=".972" stop-color="#1e1e1e"/></linearGradient><linearGradient id="k" gradientUnits="userSpaceOnUse" x1="19.527" x2="403.449" y1="67.548" y2="35.258"><stop offset="0" stop-color="#7670b0"/><stop offset=".23" stop-color="#595580"/><stop offset=".47" stop-color="#3f3d56"/><stop offset=".687" stop-color="#2d2c37"/><stop offset=".871" stop-color="#222124"/><stop offset="1" stop-color="#1e1e1e"/></linearGradient><path d="M72 121 0 79V66l72 40z" fill="url(#j)"/><path d="M72 106v15l313-69V39z" fill="#282830"/><path d="M0 66 313 0l72.277 39.617L72 106z" fill="url(#k)"/><g fill="#1e1e1e"><path d="m43.46 68.23 8.43 4.92-14.82 3.14-8.73-4.85zm15.47-3.28 8.42 4.92-12.62 2.67-8.58-4.88zm16.57-3.51 8.43 4.91-13.74 2.92-8.58-4.89zm15.47-3.28 8.42 4.91-12.62 2.68-8.58-4.88zm17.71-3.76 8.43 4.91-14.88 3.16-8.58-4.88zm15.47-3.28 8.42 4.91-12.58 2.67-8.58-4.88zm16.59-3.52 8.42 4.91-13.72 2.91-8.57-4.88zm15.46-3.28 8.43 4.91-12.59 2.67-8.57-4.88zm15.72-3.33 8.42 4.91-12.84 2.72-8.57-4.88zm15.47-3.28 8.42 4.91-12.53 2.66-8.57-4.89zm16.58-3.52 8.42 4.91-13.65 2.9-8.58-4.88zm18.06-3.83 8.05 4.99-14.75 3.13-8.57-4.88zm18.32-3.89 7.97 5.01-15.41 3.27-8.19-4.96zm19.7-4.18 7.75 5.06-16.68 3.53-8.1-4.98zm18.8-3.99 7.75 5.06-16.06 3.4-7.88-5.02zm20.08-4.25 7.97 5-17.56 3.73-7.88-5.03zm26.22 1.13-15.44 3.27-8.1-4.97 15.12-3.21zM54.95 74.94l8.43 4.91L49 82.92l-8.72-4.85zm15.44-3.3 8.42 4.91-12.39 2.65-8.58-4.88zm16.55-3.53 8.42 4.91-13.52 2.88-8.57-4.88zm15.43-3.3 8.43 4.91-12.4 2.65-8.57-4.88zm17.69-3.78 8.42 4.92-14.65 3.12-8.58-4.88zm15.43-3.29 8.43 4.91-12.37 2.64-8.57-4.88zm16.56-3.54 8.42 4.91-13.49 2.88-8.57-4.88zm15.44-3.3 8.42 4.91-12.36 2.64-8.57-4.88zm15.69-3.35 8.42 4.91-12.62 2.7-8.57-4.88zm15.43-3.3 8.42 4.92-12.3 2.63-8.57-4.88zm16.56-3.53 8.42 4.91-13.43 2.87-8.57-4.88zm17.54-3.75 8.05 4.99-14.04 3-8.57-4.88zm18.17-3.88 7.97 5.01-15.08 3.22-8.19-4.96zm19.38-4.14 7.75 5.06-16.18 3.45-8.1-4.98zm18.77-4.01 7.75 5.06-15.86 3.39-7.88-5.03zm20.33-4.34 7.97 5.01-17.64 3.77-7.88-5.03zm26.79.99-15.83 3.38-8.1-4.98 15.51-3.31zM66.72 81.8l8.43 4.92-13.98 2.96-8.73-4.85zm15.47-3.28 8.42 4.91-12.21 2.59-8.57-4.88zM98.76 75l8.43 4.92-13.33 2.83-8.58-4.89zm15.47-3.28 8.42 4.92-12.21 2.59-8.57-4.88zm17.71-3.75 8.43 4.91-14.47 3.07-8.57-4.88zm15.47-3.28 8.42 4.91-12.17 2.58-8.57-4.88zM164 61.17l8.42 4.91-13.3 2.82-8.57-4.88zm15.46-3.28 8.43 4.91-12.18 2.58-8.57-4.88zm15.72-3.34 8.42 4.92-12.43 2.63-8.57-4.88zm15.47-3.28 8.42 4.92-12.12 2.57-8.57-4.88zm16.58-3.51 8.42 4.91-13.24 2.81-8.57-4.88zm17.05-3.62 8.05 4.99-13.32 2.83-8.57-4.88zm18.08-3.83 7.97 5-14.79 3.14-8.19-4.96zm19.1-4.05 7.74 5.05-15.69 3.33-8.1-4.98zm18.8-3.99 7.75 5.05-15.7 3.33-7.88-5.03zm20.68-4.39 7.97 5.01-17.8 3.77-7.88-5.02zm27.47.87-16.31 3.46-8.1-4.98 15.99-3.39zM78.28 88.54l8.41 4.91-13.56 2.87-8.73-4.84zm15.48-3.27 8.41 4.91-12.02 2.54-8.56-4.88zm16.58-3.51 8.41 4.91-13.13 2.77-8.56-4.87zm15.48-3.28 8.41 4.91-12.01 2.54-8.57-4.87zm17.72-3.75 8.42 4.91-14.28 3.02-8.56-4.88zm15.48-3.27 8.41 4.91-11.97 2.53-8.57-4.88zm16.6-3.51 8.41 4.9-13.1 2.78-8.57-4.88zm15.47-3.28 8.42 4.91-11.98 2.53-8.56-4.87zm15.73-3.33 8.41 4.91L203 68.84l-8.56-4.88zm15.47-3.27 8.42 4.91-11.92 2.52-8.56-4.88zm16.6-3.51 8.42 4.91-13.05 2.76-8.56-4.88zm16.54-3.5 8.05 4.98-12.61 2.67-8.57-4.88zm17.98-3.81 7.96 5.01-14.49 3.06-8.18-4.96zm18.8-3.98 7.75 5.05-15.21 3.22-8.1-4.97zm18.82-3.98 7.74 5.05-15.52 3.29-7.87-5.03zm21-4.44 7.96 5-17.93 3.8-7.87-5.03zm28.11.74-16.76 3.55-8.1-4.98 16.44-3.48z"/></g></svg></g><g transform="translate(999.0 1335.0) rotate(0.0 60.75 49.5) scale(1.3491005996002665 1.3488841049677085)"><svg width="90.06" height="73.394" viewBox="0 0 90.06 73.394"><linearGradient id="l" gradientUnits="userSpaceOnUse" x1="24.535" x2="88.688" y1="20.723" y2="86.68"><stop offset="0" stop-color="#7670b0"/><stop offset=".198" stop-color="#595580"/><stop offset=".406" stop-color="#3f3d56"/><stop offset=".593" stop-color="#2d2c37"/><stop offset=".752" stop-color="#222124"/><stop offset=".863" stop-color="#1e1e1e"/></linearGradient><linearGradient xmlns:xlink="http://www.w3.org/1999/xlink" id="m" x1="26.998" x2="70.954" xlink:href="#l" y1="4.31" y2="73.553"/><path d="M.444 26.394s-1 7 0 15 36 32 49 32c16 0 35-9 40-20 1.851-4.071-1.059-14.514-1.059-14.514z" fill="url(#l)"/><path d="M.444 26.394c0-4 4.884-20.919 25-23 29-3 61.507 19.575 63 36 1 11-29 22-42 21-12.006-.924-46-26-46-34z" fill="url(#m)"/><g fill="#1e1e1e"><path d="M20.444 4.394s6-1 12 5c-1-7-9-14-12-5z"/><path d="M24.7.134s3.745-.74 5.745 1.26c1.581 1.581 5 6 5 7s-2 2-3 1S24.7.134 24.7.134z"/></g></svg></g><g transform="translate(679.5 816.0) rotate(0.0 872.25 1033.5) scale(1.5235688103761629 1.5229942287581542)"><svg width="1145.009" height="1357.195" viewBox="0 0 1145.009 1357.195"><linearGradient id="n"><stop offset=".013" stop-color="#f3caad"/><stop offset="1" stop-color="#eab794"/></linearGradient><linearGradient xmlns:xlink="http://www.w3.org/1999/xlink" id="r" gradientTransform="matrix(1 0 0 -1 0 1360)" gradientUnits="userSpaceOnUse" x1="223.432" x2="442.954" xlink:href="#n" y1="558.248" y2="473.038"/><linearGradient id="o"><stop offset=".013" stop-color="#f6dcc6"/><stop offset="1" stop-color="#f3caad"/></linearGradient><linearGradient xmlns:xlink="http://www.w3.org/1999/xlink" id="s" gradientTransform="matrix(1 0 0 -1 0 1360)" gradientUnits="userSpaceOnUse" x1="212.797" x2="439.16" xlink:href="#o" y1="584.021" y2="506.073"/><linearGradient xmlns:xlink="http://www.w3.org/1999/xlink" id="t" gradientTransform="matrix(1 0 0 -1 0 1360)" gradientUnits="userSpaceOnUse" x1="13.296" x2="232.818" xlink:href="#n" y1="386.269" y2="301.059"/><linearGradient xmlns:xlink="http://www.w3.org/1999/xlink" id="u" gradientTransform="matrix(1 0 0 -1 0 1360)" gradientUnits="userSpaceOnUse" x1="2.661" x2="229.024" xlink:href="#o" y1="412.042" y2="334.095"/><linearGradient id="v" gradientTransform="matrix(1 0 0 -1 0 1360)" gradientUnits="userSpaceOnUse" x1="781.635" x2="920.11" y1="1345.809" y2="1237.521"><stop offset="0" stop-color="#7670b0"/><stop offset=".863" stop-color="#1e1e1e"/></linearGradient><linearGradient xmlns:xlink="http://www.w3.org/1999/xlink" id="w" gradientTransform="matrix(1 0 0 -1 0 1360)" gradientUnits="userSpaceOnUse" x1="743.295" x2="973.344" xlink:href="#o" y1="953.845" y2="667.093"/><linearGradient xmlns:xlink="http://www.w3.org/1999/xlink" id="x" gradientTransform="matrix(1 0 0 -1 0 1360)" gradientUnits="userSpaceOnUse" x1="693.895" x2="765.43" xlink:href="#o" y1="1027.969" y2="764.661"/><linearGradient id="p"><stop offset="0" stop-color="#7670b0"/><stop offset=".198" stop-color="#595580"/><stop offset=".406" stop-color="#3f3d56"/><stop offset=".593" stop-color="#2d2c37"/><stop offset=".752" stop-color="#222124"/><stop offset=".863" stop-color="#1e1e1e"/></linearGradient><linearGradient xmlns:xlink="http://www.w3.org/1999/xlink" id="y" gradientTransform="matrix(1 0 0 -1 0 1360)" gradientUnits="userSpaceOnUse" x1="415.647" x2="460.647" xlink:href="#p" y1="246.305" y2="246.305"/><linearGradient xmlns:xlink="http://www.w3.org/1999/xlink" id="z" gradientTransform="matrix(1 0 0 -1 0 1360)" gradientUnits="userSpaceOnUse" x1="625.684" x2="832.236" xlink:href="#p" y1="436.034" y2="79.31"/><linearGradient xmlns:xlink="http://www.w3.org/1999/xlink" id="A" gradientTransform="matrix(1 0 0 -1 0 1360)" gradientUnits="userSpaceOnUse" x1="718.437" x2="797.232" xlink:href="#p" y1="387.727" y2="349.77"/><linearGradient id="q"><stop offset="0" stop-color="#7670b0"/><stop offset=".23" stop-color="#595580"/><stop offset=".47" stop-color="#3f3d56"/><stop offset=".687" stop-color="#2d2c37"/><stop offset=".871" stop-color="#222124"/><stop offset="1" stop-color="#1e1e1e"/></linearGradient><linearGradient xmlns:xlink="http://www.w3.org/1999/xlink" id="B" gradientTransform="matrix(1 0 0 -1 0 1360)" gradientUnits="userSpaceOnUse" x1="808.158" x2="992.411" xlink:href="#q" y1="983.953" y2="887.516"/><linearGradient xmlns:xlink="http://www.w3.org/1999/xlink" id="C" gradientTransform="matrix(1 0 0 -1 0 1360)" gradientUnits="userSpaceOnUse" x1="352.865" x2="1120.147" xlink:href="#q" y1="679.399" y2="367.891"/><linearGradient xmlns:xlink="http://www.w3.org/1999/xlink" id="D" gradientTransform="matrix(1 0 0 -1 0 1360)" gradientUnits="userSpaceOnUse" x1="210.297" x2="938.097" xlink:href="#q" y1="692.802" y2="439.454"/><linearGradient xmlns:xlink="http://www.w3.org/1999/xlink" id="E" gradientTransform="matrix(1 0 0 -1 0 1360)" gradientUnits="userSpaceOnUse" x1="469.029" x2="591.287" xlink:href="#q" y1="571.338" y2="571.338"/><linearGradient xmlns:xlink="http://www.w3.org/1999/xlink" id="F" gradientTransform="matrix(1 0 0 -1 0 1360)" gradientUnits="userSpaceOnUse" x1="324.971" x2="620.838" xlink:href="#q" y1="754.558" y2="660.683"/><linearGradient xmlns:xlink="http://www.w3.org/1999/xlink" id="G" gradientTransform="matrix(1 0 0 -1 0 1360)" gradientUnits="userSpaceOnUse" x1="445.396" x2="709.183" xlink:href="#q" y1="759.164" y2="666.085"/><path d="M217.847 783.201s-6.064 3.015-7.468 13.057c-1.102 7.884 1.404 22.958 10.468 33.943 14.513 17.589 33 24.695 48.936 28.015 24 5 58.936 5.015 74 9 8.647 2.287 28.064 13.985 39.064 17.985s54.094 11.541 62.547-22.729c8.453-34.271-227.547-79.271-227.547-79.271z" fill="url(#r)"/><path d="M446.784 845.217c-1.72 18.95-19 30-43 29s-40.83-15.7-56-19c-23-5-70.75-5.08-93.94-17.02-31.06-15.98-36-43-36-55s5.35-23.38 13.98-32c11.02-11 22.41-11.44 38.02-1 23.94 16.02 42.94 19.02 42.94 19.02s47 3 115 35c1.61.73 3.33 1.81 5.04 3.23 3.95 3.25 7.9 8.28 10.62 14.8 2.66 6.33 4.15 14.08 3.34 22.97z" fill="url(#s)"/><path d="m436.764 850.197-3.94-42.75c3.95 3.25 7.9 8.28 10.62 14.8.14.63.25 1.29.34 1.97 1.69 12.54-7.02 25.98-7.02 25.98z" fill="#eab794"/><path d="M444.784 789.217s-8.936 15.985-8.936 21.985 4.936 26.015.915 39c-11.979 14.015-55.319 10.766-77.617-7.617s-40.362-33.368-41.362-69.368c0 0 28.495 4.091 36.279-2.462s26.784-37.447 26.784-37.447l64.769 39.149-.833 16.76z" fill="#aa4d41"/><path d="M359.844 840.197c.05 2.02-11.06 13.02-12.06 13.02s-8.95-5.05-26-23c-19-20-24.22-44.2-21-60 1.46-7.13 12-15 19.06-16.02 5.49-.27 11.13.67 16.44 2.17 13.97 3.96 26.5 9.85 26.5 9.85l-12.94 10.98s-22.06-6.98-27.06-4.98c-3 4-4 19 3.06 30.98 10 16.96 33.94 34.02 34 37z" fill="#f3caad"/><path d="m363.784 766.217-13.94 10.98s-20.06.02-29.06 1.02c0 0 1-22 15.5-21.85 13.97 3.96 27.5 9.85 27.5 9.85z" fill="#eab794"/><path d="M321.42 773.315c7.363.902 27.298 1.939 32.643-2.56 7.784-6.553 26.784-37.447 26.784-37.447l-22.064 81.909c-.124.748-45 4-37.363-41.902z" fill="#aa4d41"/><path d="M365.334 756.914s15.857 32.51 72.45 46.303l10-21-79.957-28.766z" fill="#a2302c"/><ellipse cx="347.25" cy="841.182" fill="#eab794" rx="6" ry="5.255" transform="matrix(.7071 -.7071 .7071 .7071 -493.0986 491.9194)"/><path d="M251.784 751.217c1.663.811 2.732 3.038 1.806 4.936s-3.143 2.875-4.806 2.064-2.142-3.103-1.216-5.001 2.553-2.81 4.216-1.999zm-8.289 17.819c1.847.097 3.4 1.072 3.289 3.181s-1.842 4.554-3.69 4.458c-1.847-.097-3.421-2.348-3.31-4.458s1.864-3.278 3.711-3.181zm3.571 20.197c1.752-.594 4.039-.017 4.717 1.984s-.248 4.406-2 5-3.984-.286-4.662-2.286.193-4.104 1.945-4.697zm19.14-27.274c1.752-.594 4.039-.017 4.717 1.984s-.248 4.406-2 5-3.984-.286-4.662-2.286.193-4.104 1.945-4.697zm-.403 15.672c1.847.097 3.4 1.072 3.289 3.181s-1.842 4.554-3.69 4.458c-1.847-.097-3.421-2.348-3.31-4.458.111-2.109 1.864-3.278 3.711-3.181z" fill="#f3caad"/><path d="M422.056 739.755c23.479 11.93 40.29 13.835 64.554 8.14 10.638-2.551-2.501 38.948-16.092 44.32-8.037 3.176-35.274 2.494-56.423-6.545-33.8-14.446-61.615-40.895-61.619-57.172-.003-12.558 20.902-36.434 24.04-31.13 9.489 16.039 25.491 32.2 45.54 42.387z" fill="#616759"/><path d="M7.711 955.18s-6.064 3.015-7.468 13.057c-1.102 7.884 1.404 22.958 10.468 33.943 14.513 17.589 33 24.695 48.936 28.015 24 5 58.936 5.015 74 9 8.647 2.287 28.064 13.985 39.064 17.985s54.094 11.541 62.547-22.729C243.711 1000.18 7.711 955.18 7.711 955.18z" fill="url(#t)"/><path d="M236.647 1017.195c-1.72 18.95-19 30-43 29s-40.83-15.7-56-19c-23-5-70.75-5.08-93.94-17.02-31.06-15.98-36-43-36-55s5.35-23.38 13.98-32c11.02-11 22.41-11.44 38.02-1 23.94 16.02 42.94 19.02 42.94 19.02s47 3 115 35c1.61.73 3.33 1.81 5.04 3.23 3.95 3.25 7.9 8.28 10.62 14.8 2.66 6.33 4.15 14.08 3.34 22.97z" fill="url(#u)"/><path d="m226.627 1022.175-3.94-42.75c3.95 3.25 7.9 8.28 10.62 14.8.14.63.25 1.29.34 1.97 1.69 12.54-7.02 25.98-7.02 25.98z" fill="#eab794"/><path d="M234.647 961.195s-8.936 15.985-8.936 21.985 4.936 26.015.915 39c-11.979 14.015-55.319 10.766-77.617-7.617-22.298-18.383-40.362-33.368-41.362-69.368 0 0 28.495 4.091 36.279-2.462s26.784-37.447 26.784-37.447l64.769 39.149-.833 16.76z" fill="#aa4d41"/><path d="M149.707 1012.175c.05 2.02-11.06 13.02-12.06 13.02s-8.95-5.05-26-23c-19-20-24.22-44.2-21-60 1.46-7.13 12-15 19.06-16.02 5.49-.27 11.13.67 16.44 2.17 13.97 3.96 26.5 9.85 26.5 9.85l-12.94 10.98s-22.06-6.98-27.06-4.98c-3 4-4 19 3.06 30.98 10 16.96 33.94 34.02 34 37z" fill="#f3caad"/><path d="m153.647 938.195-13.94 10.98s-20.06.02-29.06 1.02c0 0 1-22 15.5-21.85 13.97 3.96 27.5 9.85 27.5 9.85z" fill="#eab794"/><path d="M111.284 945.294c7.363.902 27.298 1.939 32.643-2.56 7.784-6.553 26.784-37.447 26.784-37.447l-22.064 81.909c-.124.748-45 4-37.363-41.902z" fill="#aa4d41"/><path d="M155.197 928.893s15.857 32.51 72.45 46.303l10-21-79.957-28.766z" fill="#a2302c"/><ellipse cx="137.113" cy="1013.162" fill="#eab794" rx="6" ry="5.255" transform="matrix(.7071 -.7071 .7071 .7071 -676.254 393.7013)"/><path d="M41.647 923.195c1.663.811 2.732 3.038 1.806 4.936s-3.143 2.875-4.806 2.064-2.142-3.103-1.216-5.001 2.553-2.81 4.216-1.999zm-8.289 17.819c1.847.097 3.4 1.072 3.289 3.181s-1.842 4.554-3.69 4.458-3.421-2.348-3.31-4.458 1.864-3.278 3.711-3.181zm3.572 20.198c1.752-.594 4.039-.017 4.717 1.984s-.248 4.406-2 5-3.984-.286-4.662-2.286.193-4.104 1.945-4.697zm19.139-27.274c1.752-.594 4.039-.017 4.717 1.984s-.248 4.406-2 5-3.984-.286-4.662-2.286.193-4.104 1.945-4.697zm-.402 15.672c1.847.097 3.4 1.072 3.289 3.181s-1.842 4.554-3.69 4.458c-1.847-.097-3.421-2.348-3.31-4.458.111-2.109 1.864-3.278 3.711-3.181z" fill="#f3caad"/><path d="M827.647 742.195s-59 68-160 60c-88.369-6.999-222-47-320-72 0 0-1 43-31 103s-41 87-52 109c0 0-93-8-110-53 0 0 17-39 30-74 45.014-121.193 54.041-171.464 62-191 11-27 24-38 59-40 11.98-.685 180-8 213-14 36.283-6.597 78-33 78-33l138 28 93 136z" fill="#1e1e1e"/><path d="M209.899 909.819c23.479 11.93 40.29 13.835 64.554 8.14 10.638-2.551-2.501 38.948-16.092 44.32-8.037 3.176-35.274 2.494-56.423-6.545-33.8-14.446-61.615-40.895-61.619-57.172-.003-12.558 20.902-36.434 24.04-31.13 9.489 16.039 25.491 32.2 45.54 42.387z" fill="#616759"/><path d="M348.213 734.469c-.913 0-1.805-.243-2.432-.415-6.129-1.672-10.388-8.576-13.81-14.123-.968-1.569-2.21-3.583-3.077-4.64-.952 1.854-1.714 6.406-1.714 10.792a2.5 2.5 0 0 1-2.499 2.501h-.001a2.499 2.499 0 0 1-2.5-2.497c-.003-3.001.32-13.009 4.6-15.767a3.601 3.601 0 0 1 2.764-.49c2.407.545 4.108 3.302 6.682 7.475 2.342 3.797 5.407 8.765 8.816 10.972-2.683-5.412-7.689-16.083-7.394-32.627a2.504 2.504 0 0 1 2.544-2.455 2.501 2.501 0 0 1 2.455 2.544c-.284 15.935 4.558 25.663 7.159 30.889 1.488 2.989 2.47 4.963 1.04 6.704-.719.875-1.687 1.136-2.633 1.136z" fill="#606759"/><path d="M399.647 592.195s25-77 37-95c14.925-22.388 26.158-28.332 74-22 136 18 264.277 67.057 264.277 67.057l-53.277 166.603-335-58.66z" fill="#1e1e1e"/><path d="M548.964 581.979c-11.822 0-27.417-.368-46.784-.861-30.758-.783-65.619-1.67-96.973-.923a2.5 2.5 0 1 1-.119-4.999c31.477-.749 66.404.139 97.219.924 33.674.857 65.48 1.666 70.825-.709 8.374-3.722 12.696-7.474 23.21-18.445a2.5 2.5 0 1 1 3.61 3.46c-10.127 10.567-15.205 15.295-24.79 19.555-3.312 1.472-12.053 1.999-26.199 1.999z" fill="#606759"/><path d="M527.145 581.196c-.438 0-.881-.115-1.284-.357-20.426-12.256-32.481-38.006-32.984-39.096a2.5 2.5 0 0 1 4.54-2.096c.117.253 11.931 25.453 31.017 36.905a2.5 2.5 0 0 1-1.288 4.644z" fill="#606759"/><path d="M528.15 579.196c-.86 0-1.697-.444-2.162-1.241-7.381-12.653-5.389-24.221-5.3-24.707a2.5 2.5 0 0 1 4.921.887c-.018.102-1.711 10.312 4.698 21.301a2.5 2.5 0 0 1-2.157 3.76z" fill="#606759"/><path d="M831.647 58.195s-13 18-22.977 41.54c-1.398 3.299-21.023 13.46-23.023 18.46-1.174 2.936 8 9.524 8 13s-8 32.67-8 40.491 7.821 13.381 29.547 22.94 28.453 9.568 29.453 12.568c1.304 3.912 4 30-4 39-9.543 10.736 85-9 85-9s-6.081-12.837 2-59c7.045-40.242-79.084-128.435-79.084-128.435l-16.916 8.435z" fill="#aa4d41"/><path d="M853.647 128.195c-4 3-12 9-9.429-10.17 3.652-27.232 3.429-57.83-16.571-53.83-42.353 2.415-40.354-25.634-1-31-12-8-8-31 48-17-7-14 7.436-24.564 25-7 8 8 17.23 17.444 28 23s26.069 13.219 34.759 24.517c8.69 11.297 14.728 46.559 11.241 67.483-3.19 19.14-25.736 41.188-37.886 54-3.085 3.253-.991 7.158-6.114 11-8 6-35 4-54.144-2.997-12.647-4.622-16.856-13.003-17.856-20.003-1.701-11.908-4-32.827-4-38z" fill="url(#v)"/><path d="M851.892 127.137c18.963-18.57 38.899 8.988 24.745 27.622-8.907 11.725-27.843 26.203-36.422 4.598-5.16-12.994 3.273-23.991 11.677-32.22z" fill="#aa4d41"/><path d="M851.314 153.225a2 2 0 0 1-1.394-3.435l17.453-16.952a2 2 0 1 1 2.787 2.869l-17.453 16.952a1.995 1.995 0 0 1-1.393.565z" fill="#1e1e1e"/><path d="M862.188 156.92a1.996 1.996 0 0 1-1.529-.709l-6.637-7.858a2 2 0 0 1 3.055-2.581l6.637 7.858a2 2 0 0 1-1.527 3.29zm-44.191-76.471c11.305 7.963 14.803 14.186 17.552 12.949 3.003-1.352-4.901-17.203-12.967-21.052-5.934-1.151-7.934 5.849-4.585 8.103zm-20.834 70.943c-3.175 0-5.872-.828-7.967-1.824a2 2 0 1 1 1.717-3.613c5.034 2.392 10.41 1.815 15.978-1.716a2 2 0 1 1 2.142 3.378c-4.412 2.798-8.422 3.775-11.869 3.775z" fill="#1e1e1e"/><path d="M822.787 101.115s-3.73 3.25-9.57 1.66c-1.52-.41-3.18-1.16-4.96-2.37-.01 0-.01-.01-.02-.01.2-.25.35-.47.43-.66 1.73-4.07 3.54-7.98 5.37-11.65.02-.06.05-.11.08-.16.2.07.41.15.62.23 4.59 1.83 8.05 12.96 8.05 12.96z" fill="#fff"/><path d="M817.437 97.925c-.86 2.26-2.43 3.97-4.22 4.85-1.52-.41-3.18-1.16-4.96-2.37-.01 0-.01-.01-.02-.01.2-.25.35-.47.43-.66 1.73-4.07 3.54-7.98 5.37-11.65.09.03.17.06.26.09 3.31 1.26 4.72 5.62 3.14 9.75z" fill="#1e1e1e"/><path d="M823.147 103.085c-.12.02-.24.03-.36.03-.95 0-1.79-.67-1.96-1.64-1.24-6.84-4.5-10.14-7.61-11.73.28-.56.55-1.11.82-1.66.02-.06.05-.11.08-.16.29-.59.58-1.17.88-1.74 4.04 2 8.23 6.13 9.76 14.58.2 1.08-.52 2.12-1.61 2.32z" fill="#1e1e1e"/><path d="m777.647 292.195-56 41c-20-7-39-1-56.33-5.04-13.62-3.18-17.96-10.41-27.67-15.96-21-12-42.53-13.03-43-17-2-17 42.96-6 46-6 2.38 0-13.11-19.05-25.69-30.18l-.03-.02-.51-.45c-3.27-2.85-6.31-5.12-8.77-6.35-10 7-25.88 17.25-30 9-3-6 30-36 44-28 .95-.57 1.97-1.07 3.06-1.45 4.61-1.6 10.27-1.03 15.94 5.45.73-.21 1.72-.38 2.87-.41 4.13-.13 10.44 1.38 15.13 8.41 10 15 24.16 31.58 54 41 19 6 67 6 67 6z" fill="#aa4d41"/><path d="M614.417 258.545c-3.27-2.85-6.31-5.12-8.77-6.35 0 0 2-7 3-7 .98 0-2.84 5.76 5.77 13.35zm34.6 3.84c-21.37-23.19-29.37-29.19-29.37-29.19.95-.57 1.97-1.07 3.06-1.45 23.95 21.46 36.58 41.79 26.31 30.64zm11.63.81c-2-1-22-26-22-26 .73-.21 1.72-.38 2.87-.41 0 0 21.13 27.41 19.13 26.41z" fill="#a2302c"/><path d="M834.647 241.195c6-1 12 3 30 2 25.979-1.443 48.987-3.876 58.966-14.965.034-1.035-.016-3.035-.016-5.035 5.221 0 10.19 1.736 12.05 3 2.21 1.502 3 4.54 3 8 11.708 13.269 52.919 30.555 60 93 11 97-62 325-139.494 400.043 0 0-67.052 62.304-128.506 39.957-44-16-99.351-34.068-96-117 4-99 10-108 16-113 8.166-6.805 18.136-5.573 26-13 18-17 37-62 37-62s70-110 45-186c0 0 58-19 69-25 0 0 3.054-9.342 7-10z" fill="url(#w)"/><path d="M857.631 258.126c-12.831 0-24.859-1.564-32.074-6.254a2 2 0 0 1 2.18-3.354c9.019 5.863 29.498 7.174 57.665 3.692 27.514-3.401 43.314-8.913 52.831-18.429a2 2 0 0 1 2.829 2.828c-10.198 10.198-26.698 16.051-55.169 19.571-8.77 1.084-18.737 1.946-28.261 1.946zM685.647 707.195a1.99 1.99 0 0 1-1.414-.586c-13.59-13.59-24.535-38.926-28.564-66.121-2.974-20.075 2.619-55.564 5.96-76.768 1.128-7.156 2.018-12.808 2.018-14.525a2 2 0 0 1 4 0c0 2.031-.822 7.249-2.067 15.148-3.089 19.602-8.839 56.09-5.954 75.559 3.85 25.988 14.619 51.062 27.436 63.879a2 2 0 0 1-1.414 3.414zm36.999 31.001a1.99 1.99 0 0 1-.826-.18c-11.305-5.139-19.395-15.148-19.734-15.571a2 2 0 0 1 3.123-2.5c.077.096 7.852 9.696 18.267 14.43a2 2 0 0 1-.829 3.821z" fill="#e3b194"/><path d="M416.7 305.192s-2.053 6.003-.053 14.003c1.237 4.947 10 2 10 2zm15.947-24.997s-2 7-1 14c.86 6.022 10 3 10 3l-5-19z" fill="#a2302c"/><path d="M720.647 440.195s-18.4 11.18-42.81 24.5c-1.46.8-2.95 1.61-4.46 2.42-9.02 4.87-18.73 9.94-28.55 14.81-1.01.51-2.03 1.01-3.05 1.51-30.28 14.83-60.97 27.2-75.13 24.76-29-5-90-114-105-137-21-9-11-22-44-61-3.77-4.45 2.04-12.19 8-11 5 1 15 9 15 7s-8.87-22.5-8-26c1-4 6-6 10-5 3.07.77 15 24 16 23 1.58-1.58-3-21-1-26 1.53-3.83 7.18-4.25 10-2 5 4 11.76 28 14 28 1 0 1-23 4-26s7-3 10-1c4.48 2.99 8 37 11 37 2 0 9-29 20-23 3.93 2.14-2 25.94-2 35 0 24-2 30-7 35 23 23 58 55 58 55l26.47-16.64 1.57-.99 13.54-8.51 3.92-2.46 24.5-15.4z" fill="#aa4d41"/><path d="M575.988 410.195s-11.34 9-13.34 9 6.67-14.835 6.67-14.835zm-58.341-55-3 3c-1.617 1.617 9.315 3.295 9.16 3.097zm160.19 109.5c-1.46.8-2.95 1.61-4.46 2.42-9.02 4.87-18.73 9.94-28.55 14.81-35.76-43.87-40.65-77.36-41.14-89.36l13.54-8.51 3.92-2.46z" fill="#a2302c"/><path d="M764.647 280.195c-9.449-2.779-17-8-49 17-30.859 24.109-35.503 25.52-76 58-4.441-.807-8.932-1.767-12-1-4 1-11.459 8.266-21 19-2 5-1.345 25.209 11 48 26 48 66 66 83 67 0 0 10.757-15.921 34-46 17-22 46-40 56-81 12.594-51.637-9-76-26-81z" fill="url(#x)"/><path d="M700.648 491.195a2.06 2.06 0 0 1-.221-.012c-.378-.042-9.329-1.054-14.522-3.131a2 2 0 1 1 1.486-3.714c3.769 1.507 10.135 2.44 12.53 2.752 9.687-9.792 16.032-18.47 25.525-31.455 1.744-2.385 3.595-4.916 5.592-7.627 12.471-16.925 24.074-30.595 34.311-42.656l3.772-4.449a2.001 2.001 0 0 1 3.054 2.584l-3.776 4.454c-10.195 12.012-21.751 25.627-34.14 42.441a2381.607 2381.607 0 0 0-5.583 7.615c-9.825 13.439-16.317 22.317-26.613 32.613a2 2 0 0 1-1.414.586zm92.997-167.999a2 2 0 0 1-1.964-1.636c-4.794-25.885-11.994-40.465-36.272-43.378a2 2 0 0 1 .476-3.971c26.598 3.192 34.708 19.511 39.728 46.622a2 2 0 0 1-1.968 2.365zm-105.999 125c-.404 0-.811-.122-1.164-.375-6.214-4.455-11.939-9.295-17.015-14.385a2 2 0 1 1 2.833-2.824c4.921 4.934 10.477 9.631 16.513 13.959a2 2 0 0 1-1.167 3.626zm-29.7-29.625c-.634 0-1.257-.3-1.645-.861-20.838-30.052-18.747-60.393-18.647-61.67a2 2 0 0 1 3.988.309c-.023.299-2.047 30.248 17.946 59.082a2 2 0 0 1-1.642 3.14z" fill="#e3b194"/><path d="m685.516 1301.261-30.614-7.158c-.049-.016-.095-.038-.145-.053-.115-.035-.233-.057-.35-.086l-.179-.051-.004.006c-7.078-1.507-16.305 9.03-20.869 24.02-4.679 15.369-2.684 29.59 4.457 31.765.242.074.488.13.735.174l.002.003 30.27 7.103 1.427-4.264c5.074-3.869 7.291-14.613 10.279-24.427 3.408-11.194 6.042-18.93 2.958-24.695l2.033-2.338z" fill="#2d2d38"/><ellipse cx="677.043" cy="1329.088" fill="#1e1e1e" rx="29.088" ry="13.516" transform="matrix(.2913 -.9566 .9566 .2913 -791.6193 1589.6521)"/><path d="M1069.767 1248.394c-1.342-16.009-6.599-28.637-11.741-28.206l-39.158 3.348 4.86 57.973 39.157-3.348c5.143-.431 8.223-13.758 6.881-29.767h.001z" fill="#1e1e1e"/><ellipse cx="1021.303" cy="1252.518" fill="#2d2d38" rx="9.344" ry="29.088" transform="matrix(.9965 -.0835 .0835 .9965 -101.0638 89.6965)"/><path d="M415.647 1088.195h45v41.5c0 5.243-4.257 9.5-9.5 9.5h-26c-5.243 0-9.5-4.257-9.5-9.5z" fill="url(#y)"/><path d="M665.282 956.145c-1.342-16.009-6.599-28.637-11.741-28.206l-37.158 3.348 4.86 57.973 37.157-3.348c5.143-.431 8.223-13.758 6.881-29.767z" fill="#1e1e1e"/><ellipse cx="618.817" cy="960.271" fill="#5e5e99" rx="9.344" ry="29.088" transform="matrix(.9965 -.0835 .0835 .9965 -78.0567 55.0518)"/><path d="M976.912 1017.484c-4.687-15.366-15.873-25.57-24.986-22.79l-23.402 5.943 13.475 10.372c-.445 5.013.142 10.729 1.914 16.54 1.255 4.114 2.978 7.852 5 11.076l-9.454 6.425 6.274 11.156 22.245-5.634c.309-.064.616-.14.919-.233 9.113-2.78 12.7-17.489 8.014-32.855z" fill="#1e1e1e"/><ellipse cx="937.245" cy="1028.386" fill="#53537c" rx="17.25" ry="29.088" transform="matrix(.9565 -.2917 .2917 .9565 -259.247 318.1658)"/><path d="M1061.597 1209.145c-.48 5.78-3.06 10.73-6.85 14.36-6.29 6.02-15.93 8.4-24.87 4.86l-273.23-108.17-69.04 180.78c-3.31 8.68-11.61 14.15-20.54 14.15-1.77 0-3.57-.21-5.35-.66-10.43-2.61-17.46-12.38-16.59-23.1.45-5.53 1.22-12.03 2.52-19.17 4-22 49-163 49-163l-263.23-8.98c-10.54-.36-18.33-6.82-21.8-15.04.03-10.98 10.03-24.98 26.03-26.98 25.434-3.179 249-15 249-15l-72.4-111c2.29-3.11 4.88-5.47 7.68-7.19h.01c8.89-5.47 19.82-4.37 29.71.19 13 6 97 110 97 110s180-74 200-70c7.21 1.44 11.95 6 15.06 11.24.77 1.3 1.37 2.64 1.82 4.02 2.93 9.1-1.16 19.33-10.13 23.73l-144.75 71.01s241 105 249 122c1.8 3.83 2.29 7.92 1.95 11.95z" fill="url(#z)"/><path d="M774.647 1051.195h-.04c.03.17.04.33.04.5 0 5.8-14.55 10.5-32.5 10.5s-32.5-4.7-32.5-10.5c0-.17.01-.33.04-.5h-.04v-67.5c4.402 4.727 14.55 8.347 32.5 8.347s29.642-5.405 32.5-8.347z" fill="#1e1e1e"/><path d="M774.647 983.695c0 5.8-14.55 10.5-32.5 10.5s-32.5-4.7-32.5-10.5c0-.17.01-.33.04-.5.8-5.57 15.03-10 32.46-10s31.66 4.43 32.46 10c.03.17.04.33.04.5z" fill="url(#A)"/><g fill="#1e1e1e"><path d="M760.647 899.195v85.05c-7 3.95-28 4.95-37-.16v-84.89zm194.75 104.99-144.75 71.01s-23-11-22-16c.86-4.29 138.07-62.39 176.88-78.74 2.93 9.1-1.16 19.33-10.13 23.73zm99.35 219.32c-6.29 6.02-15.93 8.4-24.87 4.86l-273.23-108.17s7.05-25.76 12-27c8-2 286.1 130.31 286.1 130.31zm-358.1-114.31-263.23-8.98c-10.54-.36-21.77-4.02-21.8-15.04 25.94-.26 288.13-2.83 290.03.02 2 3-5 24-5 24zm-10-66-72.4-111c2.29-3.11 4.88-5.47 7.68-7.19h.01s74.71 97.19 77.71 106.19-13 12-13 12zM539.705 864.856l14.806-8.175 39.319 24.596-2.543 2.148-3.195 2.18z"/></g><path d="M1128.647 85.195s-33.449-3.668-46 3c-64 34-92 190-127 228-16.991 18.447-89 45-111 87-27.979 53.414 6.253 112.894-25 142s-55 48-74 85c-20.118 39.176-24 105 4 163 51.106 105.863 215-189 215-189l164-519z" fill="url(#B)"/><path d="M803.647 925.195s186-80 204-107c9.703-14.555 18-55 18-55l-233 75z" fill="#25252d"/><path d="M1023.647 772.195c25.567-29.501 108-396 118-477 6.645-53.822 4-200.001-13-210-81-3-112 205-147 242-34.029 35.973-90 44-115 94-21.303 42.605 2.732 97.093-16 128-20 33-58 45-81 94-34.257 72.983 4 155 4 155s17.339 91.426 43 85 184.771-85.351 207-111z" fill="#1e1e1e"/><path d="M832.647 811.195c-18.395-42.45-61.318-56.869-100.437-47.152-9.811 2.437-20.563 6.152-31.563 10.152-6.34 2.305-7.938 9.283-13 14 0 0-304.993-99.036-321-102-2.625-.486-5.22-.303-7.737.424v-.006l-.614.196c-.125.041-.252.077-.377.12l-22.279 7.1 8.54 3.972c-13.809 18.562-18.071 53.117 5.467 64.194 21.492 10.114 332.424 151.833 418.841 167.725l-1.012 1.399 3.039 5.36 23.855-7.483-.028-.073c35.017-11.388 61.114-65.288 38.304-117.927z" fill="url(#C)"/><path d="M344.647 693.195c-27-5-51 60-17 76 22.256 10.473 354.89 162.074 427.188 168.936 42.812 4.064 82.309-58.79 55.812-119.936-26-60-101-64-145-23 0 0-304.993-99.036-321-102z" fill="url(#D)"/><path d="M591.287 883.425c-18.96 13-58.65 39.02-73.64 39.77-15.01.75-36.67-10.91-43-32-2.69-8.96-4.37-28.09-5.13-58.82-.94-37.87-.5-93.37 1.13-169.18.56-26.01 50 12 50 12s-5.14 110.11-3.54 177.55c.18 7.83.45 15.09.84 21.53 0 0 9.88-2.74 24.46-10.9 12 5 24.021 9.96 35.91 14.8 4.34 1.77 8.67 3.52 12.97 5.25z" fill="url(#E)"/><path d="M578.317 878.175c-62.07 37.81-60.37-3.9-60.37-3.9s9.88-2.74 24.46-10.9c12 5 24.021 9.96 35.91 14.8z" fill="#1e1e1e"/><path d="M641.243 642.195s1 24 1 26-63.596 33.66-63.596 33.66l.596-46.66z" fill="#25252d"/><path d="M578.647 701.855s-215.093-75.037-216.404-77.66c-2-4-1-21-1-21l218 67z" fill="url(#F)"/><path d="M361.243 603.195s213.17 71.571 218.085 70.286 61.389-27.076 61.915-31.286c1-8-208-78-240-73-18.03 2.817-40 28-40 34z" fill="url(#G)"/></svg></g><g transform="translate(397.5 1090.5) rotate(0.0 907.5 742.5) translate(0.0 702.0) scale(1.5188284518828452 1.519959058341863)"><svg width="392.079" height="515.145" viewBox="0 461.855 392.079 515.145"><linearGradient id="H"><stop offset=".124" stop-color="#eab7d7"/><stop offset=".844" stop-color="#ce89bc"/></linearGradient><linearGradient xmlns:xlink="http://www.w3.org/1999/xlink" id="K" gradientTransform="matrix(1 0 0 -1 0 978)" gradientUnits="userSpaceOnUse" x1="969.781" x2="1123.547" xlink:href="#H" y1="479.342" y2="361.693"/><linearGradient id="I"><stop offset="0" stop-color="#e0aacc"/><stop offset="1" stop-color="#ce89bc"/></linearGradient><linearGradient xmlns:xlink="http://www.w3.org/1999/xlink" id="L" gradientTransform="matrix(1 0 0 -1 0 978)" gradientUnits="userSpaceOnUse" x1="1033.386" x2="1033.799" xlink:href="#I" y1="565.502" y2="787.864"/><linearGradient xmlns:xlink="http://www.w3.org/1999/xlink" id="M" gradientTransform="matrix(1 0 0 -1 0 978)" gradientUnits="userSpaceOnUse" x1="77.169" x2="267.624" xlink:href="#H" y1="204.323" y2="58.603"/><linearGradient xmlns:xlink="http://www.w3.org/1999/xlink" id="N" gradientTransform="matrix(1 0 0 -1 0 978)" gradientUnits="userSpaceOnUse" x1="157.861" x2="158.362" xlink:href="#I" y1="306.81" y2="576.368"/><linearGradient id="J"><stop offset=".124" stop-color="#eab2d2"/><stop offset=".844" stop-color="#dc9dc6"/></linearGradient><linearGradient xmlns:xlink="http://www.w3.org/1999/xlink" id="O" gradientTransform="matrix(1 0 0 -1 0 978)" gradientUnits="userSpaceOnUse" x1="537.14" x2="686.305" xlink:href="#J" y1="905.168" y2="682.338"/><linearGradient xmlns:xlink="http://www.w3.org/1999/xlink" id="P" gradientTransform="matrix(1 0 0 -1 0 978)" gradientUnits="userSpaceOnUse" x1="-103.074" x2="178.647" xlink:href="#J" y1="836.256" y2="674.212"/><path d="m1195 143-70.872 2-777.935 184.788L71.668 196.71 0 183l18.936 30.085 263.15 148.426v561.447L69.148 772.915 63 758l-11.723-44.915-1.192-475.745-12.425-7.234-5.277 537.873 249.702 191.149L294 977l13.617-27.745 6.847-567.82L325 406l31.02-31.066 785.12-203.71-2.544 438.287L954 505.596 955 494l-10-53.68V227.722l-15.328 6.639-4.693 264.51 222.279 143.872 5.742 22.033 10.294-50.58 3.727-440.09z" fill="#c078aa"/><path d="m955 494-20 7.286 198 120.98 15-16.489z" fill="url(#K)"/><path d="m1174 152.777-21 9v503l21-9zM955 42h-20v459.286L955 494z" fill="#c078aa"/><path d="M1133 152.777v469.489l-198-120.98V37h-21v475l239 152.777v-512z" fill="url(#L)"/><path d="m63 758-20 7.286L274 934.49 289 918z" fill="url(#M)"/><path d="m315 337-21 9v631l21-9zM63 221H43v544.286L63 758z" fill="#c078aa"/><path d="M274 337v597.49L43 765.286V216H22v560l272 201V337z" fill="url(#N)"/><path d="M1195 143 324 372 0 183 917 0z" fill="url(#O)"/><path d="M325 406 0 212v-29l325 188z" fill="url(#P)"/><path d="m325 406 870-236v-27L325 371z" fill="#c078aa"/></svg></g><g transform="translate(751.5 199.5) rotate(0.0 408.75 234.75) scale(1.5394146646429874 1.5353874932142086)"><svg width="531.046" height="305.786" viewBox="0 0 531.046 305.786"><linearGradient id="Q" gradientTransform="matrix(.99834081 .05758145 -.05758145 .99834081 330.25 -580.782)" gradientUnits="userSpaceOnUse" x1="-258.567" x2="236.936" y1="659.695" y2="825.284"><stop offset=".013" stop-color="#bf78a9" stop-opacity=".35"/><stop offset="1" stop-color="#db9dc6"/></linearGradient><linearGradient id="R" gradientUnits="userSpaceOnUse" x1="53.217" x2="366.252" y1="159.128" y2="135.486"><stop offset=".013" stop-color="#a49acb" stop-opacity=".35"/><stop offset="1" stop-color="#a599ca"/></linearGradient><path d="M411.617 10c35.112 0 66.844 1.288 92.708 4.07 7.064 1.045 8.064 2.045 8.102 9.727l8.402 206.594c.56 4.724.56 5.724-6.061 5.827-157.688 3.855-324.791 25.003-485.45 59.116-1.212.312-2.226.453-3.072.453-3.993 0-4.278-3.138-4.246-6.329L10.093 60.754c-.702-7.64 2.298-8.64 7.656-9.904C113.973 26.824 284.772 10.001 411.617 10m.011-10v10l-.004-10C279.664.001 109.342 17.683 15.386 41.133 10.333 42.326-1.281 45.139.116 61.455L12 289.671c-.02 2.59.093 8.015 4.158 12.122 1.803 1.822 5.018 3.994 10.09 3.994 1.668 0 3.415-.232 5.335-.71 163.848-34.778 330.993-55.13 483.382-58.86 3.445-.054 9.176-.16 13.064-4.605 3.556-4.066 3.156-8.763 2.777-12.009l-8.379-206.035c-.031-4.681-.378-9.571-3.79-13.592-3.781-4.456-9.237-5.263-12.848-5.797a10.339 10.339 0 0 0-.394-.05C479.93 1.391 448.382.002 411.628.002z" fill="#bf78a9" opacity=".6"/><path d="m516.117 20.834 8.528 213.739c-.08 3.327-.804 5.735-6.151 5.913-160.042 3.913-329.64 25.377-492.698 59.999-4.405.631-7.405-3.369-7.427-5.964L6.281 58.343c-.178-7.147 3.196-8.91 7.77-10.052C138.746 17.156 386.809-2.06 507.894 10.961c4.859.523 8.655 3.28 8.223 9.872z" fill="url(#Q)"/><path d="m367.788 42.681 10.4 171.737a6.748 6.748 0 0 1-6.366 7.146l-4.167.229-11.133.712c-14.852.833-29.738 2.156-44.596 3.3-14.876 1.413-29.753 2.687-44.625 4.38-7.441.792-14.873 1.563-22.314 2.495-7.43.912-14.871 1.763-22.302 2.715l-22.299 2.955c-7.429 1.002-14.857 2.123-22.286 3.185a2515.165 2515.165 0 0 0-88.904 14.697 2508.778 2508.778 0 0 0-22.658 4.275c-3.569.691-6.907-1.975-7.011-5.609L49.228 72.362c-.086-2.996 2.094-5.506 5.05-6 127.114-21.245 237.114-29.245 306.535-30.015 3.664-.041 6.755 2.678 6.977 6.336z" fill="url(#R)"/><path d="M288.437 68.046a2.5 2.5 0 0 1-.157-4.995c17.262-1.108 34.161-1.943 50.226-2.482a2.5 2.5 0 1 1 .167 4.997c-16.015.537-32.862 1.369-50.073 2.474a2.218 2.218 0 0 1-.163.005z" fill="#d685c5"/><path d="M144.872 82.211a2.5 2.5 0 0 1-.319-4.979c35.02-4.549 69.667-8.293 102.977-11.128 1.386-.116 2.586.903 2.703 2.279s-.903 2.586-2.279 2.703c-33.237 2.829-67.809 6.565-102.757 11.105a2.557 2.557 0 0 1-.325.021z" fill="#f9c5eb"/><path d="M76.887 92.115a2.501 2.501 0 0 1-.417-4.965c.133-.022 13.52-2.294 35.593-5.473a2.5 2.5 0 1 1 .713 4.949c-22.003 3.169-35.335 5.431-35.467 5.454a2.532 2.532 0 0 1-.422.036zm131.075 17.159a2.501 2.501 0 0 1-.256-4.987 2238.873 2238.873 0 0 1 36.706-3.523 2.5 2.5 0 0 1 .436 4.98 2242.125 2242.125 0 0 0-36.624 3.516 2.585 2.585 0 0 1-.262.014z" fill="#ffe9fa"/><path d="M78.894 126.333a2.501 2.501 0 0 1-.417-4.965c.376-.064 38.207-6.471 92.766-12.999a2.501 2.501 0 0 1 .594 4.965c-54.427 6.511-92.146 12.899-92.521 12.963a2.532 2.532 0 0 1-.422.036zm103.874 20.151a2.5 2.5 0 0 1-.284-4.984c32.546-3.768 64.367-6.787 94.579-8.973a2.5 2.5 0 0 1 .361 4.987c-30.141 2.181-61.89 5.193-94.365 8.953a2.609 2.609 0 0 1-.291.017z" fill="#f9c5eb"/><path d="M80.894 160.552a2.501 2.501 0 0 1-.417-4.965c.276-.047 28.12-4.766 70.301-10.206a2.5 2.5 0 0 1 .639 4.959c-42.073 5.426-69.826 10.129-70.101 10.176a2.532 2.532 0 0 1-.422.036z" fill="#d685c5"/><path d="M82.891 195.77a2.501 2.501 0 0 1-.408-4.967c.474-.079 48.105-7.973 113.544-15.393a2.5 2.5 0 0 1 .564 4.968c-65.3 7.404-112.813 15.278-113.285 15.357a2.54 2.54 0 0 1-.414.034z" fill="#f9c5eb"/><path d="M134.776 221.7a2.5 2.5 0 0 1-.338-4.977 3471.929 3471.929 0 0 1 36.789-4.856 2.5 2.5 0 1 1 .628 4.96 3488.09 3488.09 0 0 0-36.736 4.849c-.115.016-.23.023-.344.023z" fill="#d685c5"/><path d="M84.897 228.988a2.5 2.5 0 0 1-.391-4.969c.102-.016 10.36-1.654 27.556-4.141a2.5 2.5 0 1 1 .716 4.948c-17.155 2.481-27.381 4.114-27.483 4.13a2.572 2.572 0 0 1-.398.032z" fill="#ffe9fa"/><path d="M502.284 192.03a4.176 4.176 0 0 1-4.232 4.361s-109.662 3.723-192.706 8.915c-2.321.145-4.334-1.571-4.484-3.891l-5.89-103.739c-.15-2.33 1.642-4.27 3.971-4.447 106.448-8.115 194.839-4.546 194.839-4.546a4.176 4.176 0 0 1 4.011 3.989z" fill="#8e84be"/><ellipse cx="458.562" cy="99.797" fill="#dc9dc6" rx="4.512" ry="3.917" transform="matrix(.37824474 -.92570563 .92570563 .37824474 192.728 486.541)"/><ellipse cx="471.465" cy="100.265" fill="#f3caad" rx="4.512" ry="3.917" transform="matrix(.37824474 -.92570563 .92570563 .37824474 200.317 498.776)"/><ellipse cx="484.367" cy="100.732" fill="#61675a" rx="4.512" ry="3.917" transform="matrix(.37824474 -.92570563 .92570563 .37824474 207.906 511.01)"/><path d="M386.529 131.521a2.49 2.49 0 0 1-1.549-.539l-13.899-10.989c-21.676.242-52.725 2.098-53.041 2.117a2.5 2.5 0 0 1-.301-4.991c.321-.019 32.343-1.933 54.176-2.135a2.512 2.512 0 0 1 1.573.539l14.592 11.536a2.5 2.5 0 0 1-1.552 4.461z" fill="#a8a3e2"/><circle cx="400.346" cy="141.279" fill="#f3caad" r="10.25"/><g fill="#a8a3e2"><path d="M442.024 146.54c-.057 0-.115-.002-.173-.006-7.437-.514-23.815-.482-23.98-.482-1.378-.037-2.502-1.114-2.506-2.494a2.5 2.5 0 0 1 2.494-2.506c.642-.002 15.03-.029 23.03.414l14.904-18.441a2.502 2.502 0 0 1 1.843-.927c.54-.022 13.366-.52 25.811.936a2.5 2.5 0 0 1-.581 4.967c-9.976-1.167-20.511-1.026-23.906-.94l-14.993 18.552a2.5 2.5 0 0 1-1.944.928zm-65.417 38.839c-7.666 0-11.811-2.963-12.329-8.822-.766-8.667-1.405-10.355-7.69-12.171a2.5 2.5 0 0 1-.075-4.781c6.047-1.954 6.081-4.521 6.134-8.406.026-1.949.054-3.964.923-5.927 2.568-5.801 9.533-6.232 14.55-6.049 1.38.05 2.458 1.209 2.408 2.589s-1.208 2.469-2.589 2.408c-7.44-.268-9.155 1.626-9.796 3.076-.456 1.029-.475 2.458-.496 3.971-.044 3.243-.101 7.403-4.366 10.547 4.714 2.944 5.367 7.383 5.978 14.303.292 3.302 2.827 4.527 8.755 4.225.525-.026.927-.039 1.163-.026a2.5 2.5 0 1 1-.269 4.993c-.129-.003-.355.013-.64.027-.571.029-1.125.043-1.661.043zm-54.377-20.164a2.5 2.5 0 0 1-.183-4.993 863.44 863.44 0 0 1 21.127-1.242 2.5 2.5 0 0 1 .235 4.995 859.373 859.373 0 0 0-20.99 1.234 2.38 2.38 0 0 1-.188.007z"/></g><circle cx="400.987" cy="175.098" fill="#61675a" r="10.25"/></svg></g><g transform="translate(682.5 598.5) rotate(0.0 505.5 348.75) scale(1.515303667754308 1.5154313276047495)"><svg width="667.193" height="460.265" viewBox="0 0 667.193 460.265"><linearGradient id="S" gradientUnits="userSpaceOnUse" x1="251.367" x2="288.447" y1="445.784" y2="445.784"><stop offset="0" stop-color="#7670b0"/><stop offset=".198" stop-color="#595580"/><stop offset=".406" stop-color="#3f3d56"/><stop offset=".593" stop-color="#2d2c37"/><stop offset=".752" stop-color="#222124"/><stop offset=".863" stop-color="#1e1e1e"/></linearGradient><linearGradient xmlns:xlink="http://www.w3.org/1999/xlink" id="U" x1="251.364" x2="424.769" xlink:href="#S" y1="428.089" y2="428.089"/><linearGradient xmlns:xlink="http://www.w3.org/1999/xlink" id="V" x1="305.448" x2="313.447" xlink:href="#S" y1="379.532" y2="379.617"/><linearGradient id="W" gradientUnits="userSpaceOnUse" x1="-.596" x2="31.995" y1="210.302" y2="210.476"><stop offset="0" stop-color="#7670b0"/><stop offset=".863" stop-color="#1e1e1e"/></linearGradient><linearGradient id="X" gradientUnits="userSpaceOnUse" x1="280.86" x2="663.888" y1="202.578" y2="248.855"><stop offset=".015" stop-color="#a49acb"/><stop offset="1" stop-color="#7770b1"/></linearGradient><linearGradient id="Y" gradientUnits="userSpaceOnUse" x1="602.756" x2="342.364" y1="122.638" y2="133.906"><stop offset=".013" stop-color="#61675a"/><stop offset=".844" stop-color="#868f7a"/></linearGradient><linearGradient id="T" gradientUnits="userSpaceOnUse" x1="102.947" x2="109.947" y1="265.069" y2="265.069"><stop offset=".124" stop-color="#eab2d2"/><stop offset=".844" stop-color="#dc9dc6"/></linearGradient><linearGradient xmlns:xlink="http://www.w3.org/1999/xlink" id="Z" x1="118.235" x2="125.236" xlink:href="#T" y1="244.45" y2="244.45"/><linearGradient xmlns:xlink="http://www.w3.org/1999/xlink" id="aa" x1="172.63" x2="178.295" xlink:href="#T" y1="222.409" y2="222.409"/><linearGradient xmlns:xlink="http://www.w3.org/1999/xlink" id="ab" x1="212.948" x2="223.698" xlink:href="#T" y1="193.012" y2="193.012"/><path d="M424.714 429.241a2.64 2.64 0 0 1-2.088 2.586l-132.259 28.332c-.64.13-1.29.14-1.92.03-.59-.12-1.15-.34-1.67-.66l-34.13-21.21 11.59-1.32 135.21-15.43 25.26 2.58z" fill="#1e1e1e"/><path d="M288.447 447.569v12.62c-.59-.12-1.15-.34-1.67-.66l-34.13-21.21a2.583 2.583 0 0 1-1.22-2.16l-.06-4.78 12.87 5.62z" fill="url(#S)"/><path d="m252.721 429.702 133.711-27.715a5.417 5.417 0 0 1 3.8.608l33.486 19.254c1.664.957 1.271 3.461-.605 3.863l-132.972 28.494a4.392 4.392 0 0 1-3.178-.528l-34.776-20.866c-1.325-.795-.98-2.804.534-3.111z" fill="url(#U)"/><path d="m312.447 436.569-7-5v-109l8 13z" fill="url(#V)"/><path d="m366.447 425.569-54 11v-134l54-11z" fill="#1e1e1e"/><path d="m648.362 18.219 9.742 279.171c.147 4.366-3.247 8.026-7.611 8.222-194.068 8.739-420.857 58.028-619.762 115.585-7.775 2.25-15.604-3.355-15.987-11.441L.018 99.594c-.34-7.155 4.087-13.759 10.914-15.928C165.447 34.569 496.447-6.431 634.754 3.774c7.539.556 13.353 6.889 13.608 14.445z" fill="url(#W)"/><path d="m657.288 14.013 9.9 283.858c.144 4.262-3.183 7.663-7.433 8.018-199.308 16.68-406.308 55.68-625.835 113.897-4.862 1.289-9.702-2.057-9.941-7.082L8.928 95.697c-.286-6.033 3.489-11.459 9.197-13.432C147.447 37.569 502.447-10.431 646.04 1.991c6.239.54 11.037 5.764 11.248 12.022z" fill="#1e1e1e"/><path d="m641.394 28.628 9.404 257.598c.136 4.048-.575 7.025-7.06 7.616-194.194 15.97-398.769 53.937-594.476 107.433-6.921 2.032-9.216-1.954-9.443-6.727L25.523 106.219c-.717-8.672 3.259-11.051 8.737-12.759C183.596 46.89 482.666 9.871 630.71 17.208c5.941.294 10.746 3.379 10.684 11.42z" fill="url(#X)"/><path d="M602.866 181.296a3.727 3.727 0 0 1-3.534 3.827l-4.963.256-11.9.783-23.821 1.576-23.813 1.888-11.901.96-11.902 1.095-23.805 2.211-23.796 2.492c-7.935.782-15.861 1.73-23.788 2.648-2.708.323-5.405.635-8.113.937-5.229.605-10.447 1.2-15.665 1.878-20.744 2.547-41.472 5.334-62.174 8.298a3.721 3.721 0 0 1-4.247-3.49l-7.209-137.824a3.734 3.734 0 0 1 3.301-3.904 3137.105 3137.105 0 0 1 54.638-5.792c8.3-.862 16.64-1.537 24.961-2.306.791-.077 1.583-.144 2.374-.211 7.529-.691 15.057-1.372 22.606-1.939l25-1.962 25.049-1.691 12.524-.83 12.544-.684 25.089-1.348 25.128-1.014 12.553-.497 7.352-.199a3.728 3.728 0 0 1 3.827 3.621l3.683 131.222z" fill="url(#Y)"/><path d="M412.527 82.606a2.5 2.5 0 0 1-.262-4.986c43.024-4.585 107.214-10.051 168.682-10.051a2.5 2.5 0 1 1 0 5c-61.249 0-125.249 5.45-168.153 10.023-.09.01-.179.014-.268.014z" fill="#959e88"/><path d="M362.944 88.57a2.501 2.501 0 0 1-.347-4.976c.116-.016 11.769-1.661 30.681-3.859a2.5 2.5 0 1 1 .578 4.967c-18.851 2.192-30.443 3.827-30.558 3.844a2.5 2.5 0 0 1-.354.025zm196.115 3.219a2.5 2.5 0 0 1-.05-4.999c7.653-.153 15.208-.23 22.457-.23a2.5 2.5 0 1 1 0 5c-7.215 0-14.737.077-22.356.229h-.051z" fill="#afb5a3"/><path d="M455.522 97.516a2.5 2.5 0 0 1-.21-4.991c30.516-2.607 59.664-4.383 86.635-5.28 1.366-.042 2.536 1.036 2.582 2.416s-1.036 2.536-2.416 2.582c-26.885.894-55.946 2.665-86.375 5.264a2.636 2.636 0 0 1-.216.009zm-92.058 10.043a2.501 2.501 0 0 1-.347-4.976c.297-.042 30.229-4.257 72.864-8.313a2.5 2.5 0 1 1 .474 4.978c-42.513 4.044-72.341 8.244-72.637 8.286a2.5 2.5 0 0 1-.354.025zm64.508 13.08a2.501 2.501 0 0 1-.245-4.988c39.344-3.917 98.083-8.587 154.48-8.587a2.5 2.5 0 1 1 0 5c-56.193 0-114.753 4.656-153.985 8.562a2.654 2.654 0 0 1-.251.013z" fill="#959e88"/><path d="M364.204 128.064a2.501 2.501 0 0 1-.347-4.976c.17-.024 17.271-2.436 43.838-5.344a2.5 2.5 0 0 1 .544 4.97c-26.481 2.899-43.512 5.301-43.681 5.325a2.5 2.5 0 0 1-.354.025z" fill="#6e7563"/><path d="M364.723 148.054a2.501 2.501 0 0 1-.369-4.972c.627-.094 63.535-9.484 138.061-14.253a2.5 2.5 0 1 1 .32 4.99c-74.315 4.756-137.012 14.113-137.636 14.207a2.51 2.51 0 0 1-.375.028z" fill="#afb5a3"/><path d="M365.944 168.57a2.5 2.5 0 0 1-.379-4.972c.418-.065 42.503-6.528 98.271-11.547a2.5 2.5 0 0 1 .448 4.98c-55.599 5.005-97.538 11.444-97.955 11.509-.129.02-.258.03-.385.03z" fill="#959e88"/><path d="M366.945 189.57a2.5 2.5 0 0 1-.397-4.968c.597-.097 60.578-9.752 133.727-15.456a2.501 2.501 0 0 1 .389 4.985c-72.945 5.688-132.72 15.31-133.315 15.406-.135.022-.27.033-.403.033z" fill="#6e7563"/><path d="M508.95 267.57a2.5 2.5 0 0 1-1.155-4.718l20.821-10.827-19.858-10.757a2.5 2.5 0 0 1 2.381-4.397l24 13a2.5 2.5 0 0 1-.038 4.416l-25 13a2.483 2.483 0 0 1-1.151.282zm-16 10a2.5 2.5 0 0 1-2.445-3.038l11-50a2.501 2.501 0 0 1 4.884 1.074l-11 50a2.501 2.501 0 0 1-2.439 1.963zm-8.005-9c-.459 0-.924-.126-1.34-.391l-22-14a2.5 2.5 0 0 1 .225-4.345l24-12a2.5 2.5 0 1 1 2.236 4.472l-20.051 10.025 18.275 11.63a2.5 2.5 0 0 1-1.345 4.609z" fill="#b2afe2"/><path d="M389.958 281.132a5.734 5.734 0 0 1-4.738 5.853c-58.661 10.354-117.144 21.862-175.327 34.585-39.739 8.684-79.386 17.858-118.754 27.653l-.068.017c-3.486.857-6.9-1.639-7.12-5.223L72.539 158.342a5.756 5.756 0 0 1 4.54-5.981c31.391-6.709 62.818-13.04 94.293-19.083 68.298-13.125 136.857-24.618 205.679-34.649 3.387-.494 6.455 2.069 6.577 5.489l6.33 177.013z" fill="#fff"/><ellipse cx="331.731" cy="120.251" fill="#dc9dc6" rx="6.118" ry="5.311" transform="matrix(.20141985 -.979505 .979505 .20141985 147.125 420.961)"/><ellipse cx="349.043" cy="117.654" fill="#f3caad" rx="6.118" ry="5.311" transform="matrix(.20141985 -.979505 .979505 .20141985 163.494 435.845)"/><ellipse cx="366.355" cy="115.058" fill="#61675a" rx="6.118" ry="5.311" transform="matrix(.20141985 -.979505 .979505 .20141985 179.862 450.729)"/><g fill="#cecef4"><path d="M93.021 254.399a1 1 0 0 1-.246-1.969s2.069-.528 5.822-1.463a1 1 0 0 1 .483 1.941c-3.744.932-5.809 1.46-5.811 1.46a1.009 1.009 0 0 1-.248.031zm17.02-4.219a1.001 1.001 0 0 1-.236-1.972c3.344-.814 7.11-1.724 11.233-2.708a1 1 0 0 1 .465 1.945c-4.12.984-7.883 1.892-11.224 2.706-.08.019-.159.029-.237.029zm22.467-5.365a1 1 0 0 1-.227-1.974 2627.5 2627.5 0 0 1 11.254-2.61.999.999 0 1 1 .447 1.949 2783.1 2783.1 0 0 0-11.245 2.608 1.001 1.001 0 0 1-.229.027zm22.51-5.169a1.002 1.002 0 0 1-.219-1.976c3.671-.826 7.436-1.664 11.276-2.509a1 1 0 1 1 .429 1.954 2445.23 2445.23 0 0 0-11.267 2.507.984.984 0 0 1-.22.025zm22.554-4.96a1.001 1.001 0 0 1-.209-1.978 2128.65 2128.65 0 0 1 11.302-2.393 1 1 0 1 1 .408 1.958c-3.802.794-7.571 1.592-11.291 2.391a1.015 1.015 0 0 1-.211.022zm22.603-4.716a1 1 0 0 1-.197-1.98c3.768-.762 7.551-1.515 11.334-2.253a1 1 0 1 1 .383 1.963c-3.778.737-7.557 1.489-11.32 2.25a.974.974 0 0 1-.199.02zm22.676-4.42a1.001 1.001 0 0 1-.183-1.983c3.81-.712 7.605-1.404 11.368-2.072a1 1 0 0 1 .349 1.969c-3.757.666-7.546 1.358-11.35 2.069a.972.972 0 0 1-.185.017zm22.668-4.015a1 1 0 0 1-.162-1.987 874.6 874.6 0 0 1 5.933-.966 1 1 0 1 1 .315 1.975c-1.958.312-3.932.634-5.92.964a1.03 1.03 0 0 1-.165.014zm57.351-44.079a2.5 2.5 0 0 1-.419-4.964c23.329-4 43.773-6.83 60.766-8.411a2.5 2.5 0 1 1 .463 4.979c-16.865 1.569-37.181 4.382-60.384 8.361a2.467 2.467 0 0 1-.426.036zm-35.425 6.614a2.5 2.5 0 0 1-.505-4.948c.069-.014 6.991-1.448 17.656-3.435a2.5 2.5 0 1 1 .916 4.916c-10.61 1.977-17.487 3.401-17.555 3.416a2.475 2.475 0 0 1-.51.053z"/></g><path d="M107.445 288.069a2.5 2.5 0 0 1-2.495-2.378l-2-41a2.5 2.5 0 0 1 4.994-.244l2 41a2.5 2.5 0 0 1-2.499 2.622z" fill="url(#T)"/><path d="M122.734 267.451a2.5 2.5 0 0 1-2.495-2.378l-2-41a2.5 2.5 0 0 1 4.994-.244l2 41a2.5 2.5 0 0 1-2.499 2.622z" fill="url(#Z)"/><path d="M144.461 318.872a2.5 2.5 0 0 1-2.493-2.348l-7.659-125.947a2.5 2.5 0 0 1 2.344-2.647 2.513 2.513 0 0 1 2.646 2.344l7.659 125.947a2.5 2.5 0 0 1-2.497 2.651zm16.644-43.856a2.5 2.5 0 0 1-2.495-2.378l-2-41a2.5 2.5 0 0 1 2.375-2.619 2.488 2.488 0 0 1 2.619 2.375l2 41a2.5 2.5 0 0 1-2.499 2.622z" fill="#878e7d"/><path d="M175.792 230.07a2.5 2.5 0 0 1-2.492-2.339l-.665-10.322a2.499 2.499 0 0 1 2.334-2.655c1.347-.102 2.566.956 2.656 2.334l.665 10.322a2.499 2.499 0 0 1-2.498 2.66z" fill="url(#aa)"/><path d="M199.358 258.758a2.5 2.5 0 0 1-2.495-2.378l-2-41a2.5 2.5 0 0 1 4.994-.244l2 41a2.5 2.5 0 0 1-2.499 2.622z" fill="#878e7d"/><path d="M221.196 243.955a2.5 2.5 0 0 1-2.494-2.352l-5.75-96.885a2.5 2.5 0 1 1 4.991-.296l5.751 96.885a2.5 2.5 0 0 1-2.497 2.648z" fill="url(#ab)"/><path d="M243.052 263.624a2.5 2.5 0 0 1-2.495-2.378l-1.087-22.282a2.5 2.5 0 0 1 4.994-.244l1.087 22.282a2.5 2.5 0 0 1-2.499 2.622z" fill="#878e7d"/><path d="M270.221 208.111a2.5 2.5 0 0 1-.505-4.948c.531-.11 53.63-11.074 96.277-15.041a2.5 2.5 0 1 1 .463 4.979c-42.37 3.941-95.195 14.849-95.723 14.959a2.475 2.475 0 0 1-.51.053zm2.612 23.979a2.5 2.5 0 0 1-.515-4.946c.182-.038 18.446-3.89 41.921-7.817a2.499 2.499 0 1 1 .825 4.931c-23.371 3.91-41.531 7.739-41.711 7.777a2.498 2.498 0 0 1-.52.055zm2.776 24.041a2.5 2.5 0 0 1-.511-4.947c.325-.068 32.878-6.868 67.575-11.579a2.501 2.501 0 0 1 .673 4.955c-34.513 4.686-66.898 11.451-67.221 11.518a2.534 2.534 0 0 1-.516.054z" fill="#cecef4"/></svg></g><g transform="translate(1314.0 1506.0) rotate(0.0 87.75 43.5) scale(1.4923520148027716 1.519385260216556)"><svg width="117.6" height="57.26" viewBox="0 0 117.6 57.26"><g><path fill="#C078AA" d="M117.6 25.36 0 57.26V25.31L96.27 0z"/></g></svg></g></svg>