<svg xmlns="http://www.w3.org/2000/svg" viewBox="0 0 3000 3000" width="3000" height="3000"><g transform="translate(40.8 734.4) rotate(0.0 1457.9999999999998 860.3999999999999) scale(1.351241140010083 1.3514022919179731)"><svg width="2158.016" height="1273.344" viewBox="0 0 2158.016 1273.344"><linearGradient id="a" gradientTransform="matrix(1 0 0 -1 952.5 4090.424)" gradientUnits="userSpaceOnUse" x1="-952.5" x2="1205.516" y1="3453.752" y2="3453.752"><stop offset="0" stop-color="#4f82e3" stop-opacity="0"/><stop offset=".49" stop-color="#4f82e3"/><stop offset="1" stop-color="#4f82e3" stop-opacity="0"/></linearGradient><path d="M0 1273.344S197.432 425.352 341.045 193.092C484.657-39.169 719.316-67.556 863.207 138.759c143.891 206.314 287.712 670.415 431.603 747.973 143.891 77.561 287.712-232.05 431.603-309.4 143.891-77.349 287.712 77.349 359.658 154.701l71.946 77.14v464.171z" fill="url(#a)" fill-rule="evenodd"/></svg></g><g transform="translate(1216.8 654.0) rotate(0.0 524.9999999999999 759.0) scale(1.355802641620042 1.3558232070845782)"><svg width="774.449" height="1119.615" viewBox="0 0 774.449 1119.615"><linearGradient id="b" gradientTransform="matrix(1 0 0 -1 952.5 8184.705)" gradientUnits="userSpaceOnUse" x1="-226.064" x2="-904.486" y1="7037.37" y2="8212.426"><stop offset="0" stop-color="#fff"/><stop offset=".526" stop-color="#e1e1e1" stop-opacity=".5"/><stop offset="1" stop-color="#fff" stop-opacity=".2"/></linearGradient><path d="M774.449 0H0v1119.615h774.449z" fill="url(#b)"/></svg></g><g transform="translate(794.4 1130.3999999999999) rotate(0.0 750.5999999999999 768.0000000000001) scale(1.2261440171980338 1.225764027656301)"><svg width="1224.326" height="1253.096" viewBox="0 0 1224.326 1253.096"><path d="M137.457 0v115.08H0v3.197h137.457v140.654H0v3.197h137.457v134.26H0v3.197h137.457v121.474H0v3.197h137.457V664.91H0v3.197h137.457v134.26H0v3.197h137.457v140.654H0v3.197h137.457v140.654H0v3.197h137.457V1253.1h3.197v-159.834h137.457V1253.1h3.197v-159.834h140.654V1253.1h3.197v-159.834h134.26V1253.1h3.197v-159.834H684.09V1253.1h3.197v-159.834h140.654V1253.1h3.197v-159.834h134.263V1253.1h3.197v-159.834h131.064V1253.1h3.197v-159.834h121.47v-3.197h-121.47V949.415h121.47v-3.197h-121.47V805.564h121.47v-3.197h-121.47v-134.26h121.47v-3.197h-121.47V524.256h121.47v-3.197h-121.47V399.585h121.47v-3.197h-121.47v-134.26h121.47v-3.197h-121.47V118.277h121.47v-3.197h-121.47V0h-3.197v115.08H968.598V0h-3.197v115.08H831.138V0h-3.197v115.08H687.287V0h-3.197v115.08H562.616V0h-3.197v115.08h-134.26V0h-3.197v115.08H281.308V0h-3.197v115.08H140.654V0zm962.202 1090.065V949.411H968.595v140.654zm-134.26 0V949.411H831.136v140.654zm-137.46 0V949.411H687.285v140.654zm-143.85 0V949.411H562.615v140.654zm-124.67 0V949.411h-134.26v140.654zm-137.457 0V949.411H281.308v140.654zm-143.85 0V949.411H140.655v140.654zm0-143.85H140.655V805.561h137.457zm143.85 0H281.308V805.561h140.654zm137.457 0h-134.26V805.561h134.26zm124.67 0H562.615V805.561h121.474zm143.85 0H687.285V805.561h140.654zm137.46 0H831.136V805.561h134.263zm134.26 0H968.595V805.561h131.064zm0-143.85v-134.26H968.595v134.26zm-134.26 0v-134.26H831.136v134.26zm-137.46 0v-134.26H687.285v134.26zm-143.85 0v-134.26H562.615v134.26zm-124.67 0v-134.26h-134.26v134.26zm-137.457 0v-134.26H281.308v134.26zm-143.85 0v-134.26H140.655v134.26zM140.655 521.058V399.584h137.457v121.474zm0-124.67h137.457v-134.26H140.655zm140.654 124.67V399.584h140.654v121.474zm0-124.67h140.654v-134.26H281.309zm143.85 124.67V399.584h134.26v121.474zm0-124.67h134.26v-134.26h-134.26zm137.457 124.67V399.584H684.09v121.474zm0-124.67H684.09v-134.26H562.616zm124.67 124.67V399.584H827.94v121.474zm0-124.67H827.94v-134.26H687.286zm143.85 124.67V399.584h134.263v121.474zm0-124.67h134.263v-134.26H831.136zm137.46 124.67V399.584h131.064v121.474zm0-124.67h131.064v-134.26H968.596zm131.064 268.52V524.254H968.596v140.654zm-134.26 0V524.254H831.137v140.654zm-137.46 0V524.254H687.286v140.654zm-143.85 0V524.254H562.616v140.654zm-124.67 0V524.254H425.16v140.654zm-137.457 0V524.254H281.309v140.654zm-143.85 0V524.254H140.656v140.654zM140.656 258.931h137.457V118.277H140.656zm140.654 0h140.654V118.277H281.31zm143.85 0h134.26V118.277H425.16zm137.457 0h121.474V118.277H562.617zm124.67 0h140.654V118.277H687.287zm143.85 0H965.4V118.277H831.137zm137.46 0h131.064V118.277H968.597z" fill="#fff" fill-rule="evenodd"/></svg></g><g transform="translate(1328.3999999999999 1438.8) rotate(0.0 759.0000000000001 506.9999999999999) scale(1.1997050527498776 1.198677907916948)"><svg width="1265.311" height="845.932" viewBox="0 0 1265.311 845.932"><linearGradient id="c" gradientTransform="matrix(1 0 0 -1 952.5 19197.007)" gradientUnits="userSpaceOnUse" x1="-319.845" x2="-319.845" y1="18622.52" y2="18399.903"><stop offset="0" stop-color="#63ad8f"/><stop offset="1" stop-color="#80d28a"/></linearGradient><linearGradient xmlns:xlink="http://www.w3.org/1999/xlink" id="d" x1="-942.497" x2="314.038" xlink:href="#c" y1="18375.475" y2="18375.472"/><path d="M165.165 32.611C165.165 14.6 179.765 0 197.776 0h882.685c18.011 0 32.611 14.6 32.611 32.611V574.49H165.165z" fill="#111"/><path d="M196.762 43.086h884.713v502.677H196.762z" fill="#fff"/><path d="M547.201 20.108h183.836v51.704H547.201z" fill="#111"/><path d="M165.165 574.487h947.907l152.238 222.616H0z" fill="url(#c)"/><path d="M510.641 709.494h251.771l18.892 57.448H484.005l26.637-57.448zM227.834 585.979h820.854l73 112.022H155.111z" fill="#111"/><path d="M0 797.1h1265.311v48.832H0z" fill="url(#d)"/><path d="M524.22 797.1h229.794c0 14.28-11.574 25.854-25.851 25.854H550.071c-14.277 0-25.851-11.574-25.851-25.854z" fill="#63ad8f"/></svg></g><g transform="translate(1862.3999999999999 1600.8) rotate(0.0 284.4 211.19999999999993) scale(1.1980209906420405 1.1985800911987785)"><svg width="474.783" height="352.417" viewBox="0 0 474.783 352.417"><path d="M9.789 0H52.21v120.735H9.789zm78.315 0h120.735v42.421H88.104zM398.1 306.733h42.421v45.684H398.1z" fill="#63ad8f"/><g fill-rule="evenodd"><path d="M208.729 119.63h34.677v36.503h41.978V77.652H166.75v198.94h118.634v-82.13h-41.978v40.152h-34.677z" fill="#63ad8f"/><path d="M319.785 228.418h42.421v123.999H9.789V230.961h41.978v79.035h268.018z" fill="#63ad8f"/><path d="M130.248 77.652H88.27v78.48H9.789v41.978H88.27v74.831h41.978zm114.983-34.677V.997h195.29v41.978h-74.83v78.48h-41.979v-78.48z" fill="#63ad8f"/><path d="M440.521 77.652h-41.977v78.48h-78.481v41.978h78.481v74.831h41.977z" fill="#63ad8f"/><path d="M73.42 60.368c-.901 0-1.632.731-1.632 1.632v9.993a1.632 1.632 0 0 0 3.264 0v-8.362h6.643a1.632 1.632 0 0 0 0-3.264h-8.274zm24.823 0a1.632 1.632 0 0 0 0 3.264h16.549a1.632 1.632 0 0 0 0-3.264zm33.097 0a1.632 1.632 0 0 0 0 3.264h16.549a1.632 1.632 0 0 0 0-3.264zm33.098 0a1.632 1.632 0 0 0 0 3.264h16.549a1.632 1.632 0 0 0 0-3.264zm33.097 0a1.632 1.632 0 0 0 0 3.264h16.549a1.632 1.632 0 0 0 0-3.264zm33.097 0a1.632 1.632 0 0 0 0 3.264h16.549a1.632 1.632 0 0 0 0-3.264zm33.098 0a1.632 1.632 0 0 0 0 3.264h16.549a1.632 1.632 0 0 0 0-3.264zm33.097 0a1.632 1.632 0 0 0 0 3.264h6.643v6.037a1.632 1.632 0 0 0 3.264 0v-7.668c0-.901-.731-1.632-1.632-1.632h-8.274zm9.906 24.636a1.632 1.632 0 0 0-3.264 0v15.337a1.632 1.632 0 0 0 3.264 0zM75.052 91.979a1.632 1.632 0 0 0-3.264 0v19.987a1.632 1.632 0 0 0 3.264 0zm231.681 23.698a1.632 1.632 0 0 0-3.264 0v15.337a1.632 1.632 0 0 0 3.264 0zM75.052 131.952a1.632 1.632 0 0 0-3.264 0v8.362h-7.546a1.632 1.632 0 0 0 0 3.264h9.178c.901 0 1.632-.731 1.632-1.632v-9.993zM0 143.577h9.178a1.632 1.632 0 0 0 0-3.264H0v3.263zm27.533-3.263a1.632 1.632 0 0 0 0 3.264h18.355a1.632 1.632 0 0 0 0-3.264zm279.2 6.037a1.632 1.632 0 0 0-3.264 0v15.337a1.632 1.632 0 0 0 3.264 0zm0 30.673a1.632 1.632 0 0 0-3.264 0v15.337a1.632 1.632 0 0 0 3.264 0zm0 30.673a1.632 1.632 0 0 0-3.264 0v7.668c0 .901.731 1.632 1.632 1.632h9.585a1.632 1.632 0 0 0 0-3.264h-7.954v-6.037zm27.123 6.037a1.632 1.632 0 0 0 0 3.264h19.174a1.632 1.632 0 0 0 0-3.264zm38.342 0a1.632 1.632 0 0 0 0 3.264h7.955v8.362a1.632 1.632 0 0 0 3.264 0v-9.993c0-.901-.731-1.632-1.632-1.632h-9.587zm11.218 31.612a1.632 1.632 0 0 0-3.264 0v19.987a1.632 1.632 0 0 0 3.264 0zm0 39.973a1.632 1.632 0 0 0-3.264 0v9.993c0 .901.731 1.632 1.632 1.632h7.75a1.632 1.632 0 0 0 0-3.264h-6.118v-8.362zm21.618 8.361a1.632 1.632 0 0 0 0 3.264h15.5a1.632 1.632 0 0 0 0-3.264zm31 0a1.632 1.632 0 0 0 0 3.264h15.5a1.632 1.632 0 0 0 0-3.264zm31 0a1.632 1.632 0 0 0 0 3.264h7.75v-3.263h-7.75z" fill="#111"/></g></svg></g><g transform="translate(763.1999999999999 2288.4) rotate(0.0 186.59999999999997 195.5999999999999) scale(1.3674386906005076 1.3709143283676228)"><svg width="272.919" height="285.357" viewBox="0 0 272.919 285.357"><linearGradient id="e" gradientTransform="matrix(1 0 0 -1 952.5 9855.029)" gradientUnits="userSpaceOnUse" x1="-763.1" x2="-843.619" y1="9842.584" y2="9612.782"><stop offset="0" stop-color="#63ad8f"/><stop offset="1" stop-color="#fff"/></linearGradient><linearGradient xmlns:xlink="http://www.w3.org/1999/xlink" id="g" x1="-681.098" x2="-888.523" xlink:href="#e" y1="9676.097" y2="9570.177"/><linearGradient xmlns:xlink="http://www.w3.org/1999/xlink" id="h" x1="-908.658" x2="-892.006" xlink:href="#e" y1="9708.981" y2="9569.121"/><linearGradient id="f" gradientTransform="matrix(1 0 0 -1 952.5 9855.029)" gradientUnits="userSpaceOnUse" x1="-896.571" x2="-714.248" y1="9728.03" y2="9625.248"><stop offset="0" stop-color="#63ad8f"/><stop offset="1" stop-color="#fbfdff"/></linearGradient><linearGradient id="i" gradientTransform="matrix(1 0 0 -1 952.5 9855.029)" gradientUnits="userSpaceOnUse" x1="-708.729" x2="-743.121" y1="9631.84" y2="9852.842"><stop offset="0" stop-color="#63ad8f"/><stop offset="1" stop-color="#fbfdff" stop-opacity=".99"/></linearGradient><linearGradient xmlns:xlink="http://www.w3.org/1999/xlink" id="j" x1="-744.501" x2="-952.56" xlink:href="#f" y1="9854.911" y2="9748.664"/><path d="M30.012 64.627 208.135.342l64.126 178.329L93.569 242.75z" fill="url(#e)"/><path d="M272.148 178.805 93.662 242.728l-29.745 41.901 178.486-63.922z" fill="url(#g)"/><path d="M94.059 243.113 30.137 64.627.516 106.871l63.922 178.486z" fill="url(#h)"/><path d="m.435 106.758 178.486-63.92 63.801 178.144-178.364 64.265z" fill="url(#f)" fill-opacity=".8"/><path d="m208.997 0-29.42 42.85 63.563 177.245 29.78-41.768z" fill="url(#i)"/><path d="M208.103.322 29.496 63.899 0 106.482l178.483-63.92z" fill="url(#j)"/></svg></g><g transform="translate(2660.4 1114.8) rotate(0.0 115.19999999999982 119.39999999999998) scale(1.3615975131934286 1.3497473462881946)"><svg width="169.213" height="176.922" viewBox="0 0 169.213 176.922"><linearGradient id="k" gradientTransform="matrix(1 0 0 -1 952.5 14306.88)" gradientUnits="userSpaceOnUse" x1="-900.716" x2="-850.795" y1="14299.162" y2="14156.686"><stop offset="0" stop-color="#4f82e3"/><stop offset="1" stop-color="#fff"/></linearGradient><linearGradient xmlns:xlink="http://www.w3.org/1999/xlink" id="m" x1="-951.56" x2="-822.955" xlink:href="#k" y1="14195.941" y2="14130.269"/><linearGradient xmlns:xlink="http://www.w3.org/1999/xlink" id="n" x1="-810.469" x2="-820.795" xlink:href="#k" y1="14216.328" y2="14129.616"/><linearGradient id="l" gradientTransform="matrix(1 0 0 -1 952.5 14306.88)" gradientUnits="userSpaceOnUse" x1="-817.963" x2="-931.003" y1="14228.141" y2="14164.413"><stop offset="0" stop-color="#4f82e3"/><stop offset="1" stop-color="#fbfdff"/></linearGradient><linearGradient id="o" gradientTransform="matrix(1 0 0 -1 952.5 14306.88)" gradientUnits="userSpaceOnUse" x1="-934.428" x2="-913.103" y1="14168.501" y2="14305.524"><stop offset="0" stop-color="#4f82e3"/><stop offset="1" stop-color="#fbfdff" stop-opacity=".99"/></linearGradient><linearGradient xmlns:xlink="http://www.w3.org/1999/xlink" id="p" x1="-912.249" x2="-783.249" xlink:href="#l" y1="14306.805" y2="14240.931"/><path d="M150.606 40.071 40.17.215.409 110.778l110.79 39.729z" fill="url(#k)"/><path d="m.479 110.862 110.662 39.63 18.442 25.977-110.662-39.63z" fill="url(#m)"/><path d="m110.894 150.73 39.633-110.659 18.366 26.189-39.633 110.662z" fill="url(#n)"/><path d="M168.943 66.191 58.281 26.56 18.726 137.01l110.587 39.842 39.63-110.662z" fill="url(#l)" fill-opacity=".8"/><path d="m39.633 0 18.242 26.566-39.41 109.893L0 110.563z" fill="url(#o)"/><path d="m40.187.2 110.737 39.419 18.288 26.404L58.553 26.392z" fill="url(#p)"/></svg></g><g transform="translate(1461.6 376.8) rotate(0.0 326.4000000000001 289.79999999999995) scale(1.19899936450095 1.199274972480405)"><svg width="544.454" height="483.292" viewBox="0 0 544.454 483.292"><linearGradient id="q" gradientTransform="matrix(1 0 0 -1 952.5 19185.033)" gradientUnits="userSpaceOnUse" x1="-770.214" x2="-625.521" y1="19121.569" y2="18781.294"><stop offset="0" stop-color="#63ad8f"/><stop offset="1" stop-color="#63ad8f" stop-opacity="0"/></linearGradient><path d="M48.49 120.368c-3.936 1.752-8.388 4.178-13.25 7.499-19.453 13.284-24.53 24.906-24.53 24.906l3.372 8.667c-2.286 1.578-6.874 4.671-6.969 4.74a10.546 10.546 0 0 0-4.262 6.874c-.659 4.076-15.634 101.224 30.257 209.147 10.804 25.404 22.446 49.086 34.636 70.414 13.371 23.379 40.924 35.311 67.009 29.004l19.221-4.644a20.475 20.475 0 0 0 3.297-1.089c7.579-3.225 12.598-10.602 12.526-18.402l6.04-89.42c.522-7.908 5.394-14.75 12.715-17.861l195.905-83.305c7.311-3.109 15.627-1.874 21.703 3.227l68.027 57.192c6.907 6.734 17.496 7.843 25.583 2.619l16.661-10.615c22.629-14.408 33.159-42.535 25.593-68.385-6.91-23.568-15.882-48.39-26.686-73.794C469.447 69.22 389.09 12.611 385.696 10.257a10.546 10.546 0 0 0-7.905-1.7c-.117.021-5.528 1.179-8.251 1.732l-3.9-8.442s-11.897-4.404-34.959.389c-23.059 4.794-31.046 14.867-31.046 14.867l2.012 10.067c-34.062 9.592-75.517 22.877-117.478 40.72S103.88 106.373 73.34 124.252l-5.854-8.433s-7.191-.707-18.996 4.548zm286.348-59.711c7.986-3.396 17.215.317 20.607 8.288 3.388 7.97-.342 17.196-8.329 20.591-7.983 3.396-17.215-.317-20.607-8.288-3.388-7.971.342-17.196 8.329-20.591zM64.378 187.03l8.988-3.821c6.124-2.604 13.126.911 14.659 7.376l1.803 7.646c.558 2.355.313 4.81-.711 7.008l-4.406 9.466a4.497 4.497 0 0 1-5.518 2.347l-9.875-3.394a10.665 10.665 0 0 1-5.541-4.348l-4.256-6.605c-3.584-5.591-1.268-13.07 4.856-15.675zm253.806-85.191c7.986-3.396 17.219.317 20.607 8.288 3.388 7.97-.342 17.196-8.326 20.591-7.986 3.396-17.219-.317-20.607-8.288-3.392-7.971.339-17.196 8.326-20.591zm57.868-24.607c7.986-3.396 17.219.317 20.607 8.288s-.342 17.196-8.329 20.591c-7.983 3.396-17.215-.317-20.607-8.288-3.388-7.97.342-17.196 8.329-20.591zM49.902 221.715c.711-.35 1.467-.622 2.276-.814l7.66-1.814a10.73 10.73 0 0 1 7.015.702l9.454 4.394a4.48 4.48 0 0 1 2.345 5.509l-3.395 9.857a10.8 10.8 0 0 1-4.36 5.54l-6.63 4.239c-5.599 3.597-13.08 1.302-15.679-4.81l-3.812-8.968c-2.276-5.349.147-11.384 5.127-13.836zm58.508-24.879c5.221-1.885 11.238.538 13.514 5.887l3.822 8.987c2.599 6.113-.939 13.093-7.416 14.631l-7.651 1.832c-2.358.56-4.823.299-7.024-.721l-9.454-4.394a4.45 4.45 0 0 1-2.332-5.49l3.392-9.857a10.747 10.747 0 0 1 4.354-5.559l6.627-4.239c.701-.45 1.422-.807 2.169-1.077zm-20.291 33.471a4.456 4.456 0 0 1 3.199-.117l9.875 3.394a10.678 10.678 0 0 1 5.541 4.349l4.256 6.605c3.584 5.591 1.265 13.07-4.859 15.675l-8.984 3.821c-6.124 2.604-13.129-.911-14.659-7.376l-1.807-7.647c-.558-2.355-.31-4.81.714-7.007l4.406-9.466a4.507 4.507 0 0 1 2.319-2.23zm271.279-111.892c7.986-3.396 17.219.317 20.607 8.288s-.339 17.196-8.326 20.591c-7.986 3.396-17.219-.317-20.607-8.288-3.392-7.97.339-17.196 8.326-20.591zM178.057 240.994c15.979-6.796 34.431.625 41.214 16.576s-.672 34.386-16.655 41.183c-15.979 6.796-34.431-.626-41.214-16.576-6.783-15.951.672-34.387 16.655-41.183zm135.023-57.416c15.983-6.796 34.434.624 41.214 16.576 6.783 15.951-.672 34.387-16.651 41.183-15.983 6.795-34.431-.625-41.214-16.576s.672-34.387 16.651-41.183z" fill="url(#q)"/></svg></g><g transform="translate(705.6 1101.6) rotate(0.0 553.2 388.79999999999995) scale(1.1252032718763254 1.1264129050762457)"><svg width="983.289" height="690.333" viewBox="0 0 983.289 690.333"><linearGradient id="r" gradientTransform="matrix(1 0 0 -1 952.5 5789.771)" gradientUnits="userSpaceOnUse" x1="-331.458" x2="-590.252" y1="4984.198" y2="5797.691"><stop offset="0" stop-color="#fff"/><stop offset=".521" stop-color="#8CB1EE"/><stop offset="1" stop-color="#4F82E3"/></linearGradient><path d="M983.289 107.321H0v583.012h983.289z" fill="url(#r)"/><path d="M983.289 0H0v113.122h983.289z" fill="#111"/><g fill="#fff"><path d="M78.315 78.315c11.214 0 20.304-9.74 20.304-21.754s-9.09-21.754-20.304-21.754-20.304 9.74-20.304 21.754 9.09 21.754 20.304 21.754zm59.462 0c12.014 0 21.754-9.74 21.754-21.754s-9.74-21.754-21.754-21.754-21.754 9.74-21.754 21.754 9.74 21.754 21.754 21.754zm59.461 0c11.214 0 20.304-9.74 20.304-21.754s-9.09-21.754-20.304-21.754-20.304 9.74-20.304 21.754 9.09 21.754 20.304 21.754z"/></g></svg></g><g transform="translate(967.1999999999999 1336.8) rotate(0.0 354.00000000000006 188.39999999999998) scale(1.3111183951021954 1.3083424190445765)"><svg width="539.997" height="287.998" viewBox="0 0 539.997 287.998"><path d="M122.999 42h416.998V0H122.999zm242.999 95.999h173.999v-42H365.998z" fill="#111"/><path d="M449.997 212.999h89.999v-42h-89.999z" fill="#fff"/><path d="M209.999 212.999h218.999v-42H209.999z" fill="#e2f570"/><path d="M347.998 287.998h191.999v-42H347.998zm-233.999 0h215.999v-42H113.999z" fill="#111"/><path d="M0 287.998h86.999v-42H0z" fill="#fff"/><path d="M0 212.999h191.999v-42H0z" fill="#111"/></svg></g></svg>